<?xml version="1.0" encoding="iso-8859-1"?>
<!-- Generator: Adobe Illustrator 19.0.0, SVG Export Plug-In . SVG Version: 6.00 Build 0)  -->
<svg version="1.1" id="Layer_1" xmlns="http://www.w3.org/2000/svg" xmlns:xlink="http://www.w3.org/1999/xlink" x="0px" y="0px"
	 viewBox="0 0 378.951 57.31" style="enable-background:new 0 0 378.951 57.31;" xml:space="preserve">
<g id="XMLID_1153_">
	<g id="XMLID_466_">
		<g id="XMLID_494_">
			<path id="XMLID_530_" d="M14.37,50.833h0.895c-0.416,2.013-1.236,3.547-2.457,4.602c-1.222,1.056-2.694,1.583-4.415,1.583
				c-2.347,0-4.332-0.871-5.957-2.613C0.812,52.663,0,50.66,0,48.397c0-2.332,0.833-4.38,2.499-6.144
				c1.666-1.763,3.734-2.645,6.206-2.645c1.763,0,3.2,0.448,4.311,1.344c1.111,0.895,1.666,1.899,1.666,3.009
				c0,0.556-0.191,1.056-0.572,1.499c-0.382,0.445-0.879,0.666-1.489,0.666c-0.597,0-1.093-0.188-1.489-0.562
				c-0.396-0.375-0.593-0.868-0.593-1.479c0-0.43,0.17-0.854,0.51-1.27c0.34-0.417,0.511-0.701,0.511-0.854
				c0-0.375-0.257-0.705-0.771-0.989c-0.514-0.284-1.18-0.427-1.999-0.427c-1.444,0-2.517,0.389-3.218,1.166
				c-0.701,0.778-1.052,2.423-1.052,4.936c0,2.513,0.066,4.37,0.198,5.571c0.132,1.201,0.482,2.145,1.052,2.832
				c0.569,0.687,1.507,1.031,2.812,1.031C11.329,56.082,13.259,54.332,14.37,50.833z"/>
			<path id="XMLID_527_" d="M24.455,38.816c1.285,0,2.456,0.236,3.516,0.71c1.059,0.473,1.972,1.116,2.739,1.927
				c0.766,0.811,1.363,1.764,1.792,2.856c0.428,1.094,0.642,2.26,0.642,3.499c0,1.488-0.242,2.818-0.727,3.99
				c-0.485,1.172-1.133,2.17-1.944,2.992c-0.811,0.823-1.753,1.449-2.823,1.876c-1.071,0.428-2.193,0.643-3.364,0.643
				c-1.33,0-2.536-0.237-3.618-0.71c-1.082-0.473-2.012-1.116-2.789-1.927c-0.778-0.812-1.381-1.764-1.809-2.857
				c-0.428-1.093-0.643-2.271-0.643-3.533c0-1.465,0.237-2.784,0.71-3.956c0.473-1.172,1.121-2.164,1.944-2.975
				c0.822-0.811,1.78-1.437,2.874-1.876C22.049,39.035,23.215,38.816,24.455,38.816z M24.455,55.619
				c1.082,0,1.944-0.219,2.587-0.659c0.642-0.44,1.132-0.975,1.47-1.606c0.338-0.631,0.552-1.29,0.643-1.978
				c0.09-0.687,0.135-1.29,0.135-1.809c0-0.923-0.057-1.927-0.169-3.009c-0.113-1.082-0.35-2.09-0.71-3.026
				c-0.361-0.935-0.868-1.712-1.522-2.333c-0.654-0.62-1.522-0.93-2.603-0.93c-1.127,0-2.017,0.236-2.671,0.71
				c-0.654,0.473-1.149,1.037-1.487,1.69c-0.338,0.654-0.558,1.341-0.659,2.063c-0.101,0.722-0.152,1.319-0.152,1.792
				c0,0.925,0.056,1.922,0.169,2.992c0.113,1.071,0.344,2.057,0.693,2.958c0.349,0.902,0.862,1.651,1.539,2.248
				C22.392,55.32,23.305,55.619,24.455,55.619z"/>
			<path id="XMLID_525_" d="M39.19,32.098c-0.187,3.225-0.281,6.142-0.281,8.75v8.486c0,3.368,0.072,5.277,0.215,5.729
				c0.077,0.231,0.44,0.379,1.089,0.446l1.403,0.148v0.957c-1.202-0.077-2.349-0.115-3.441-0.115c-1.213,0-2.801,0.038-4.764,0.115
				v-0.957l1.42-0.116c0.627-0.055,0.985-0.214,1.073-0.478c0.143-0.429,0.215-2.383,0.215-5.861v-8.436l-0.017-3.169l-0.05-2.163
				c0-0.539-0.061-0.869-0.182-0.99c-0.176-0.176-0.545-0.264-1.106-0.264h-1.354v-0.991c2.296-0.209,4.128-0.638,5.497-1.288
				L39.19,32.098z"/>
			<path id="XMLID_523_" d="M54.652,41.096v3.45h-2.096c-0.188-0.716-0.418-1.279-0.694-1.692c-0.275-0.412-0.594-0.701-0.957-0.867
				c-0.363-0.165-0.815-0.248-1.354-0.248c-0.771,0-1.453,0.248-2.047,0.743c-0.594,0.495-1.064,1.249-1.411,2.262
				c-0.347,1.013-0.52,2.251-0.52,3.714c0,0.936,0.066,1.791,0.198,2.567c0.132,0.776,0.357,1.439,0.676,1.989
				c0.319,0.55,0.743,0.979,1.272,1.287c0.528,0.308,1.183,0.462,1.964,0.462c0.759,0,1.466-0.148,2.121-0.446
				c0.655-0.297,1.334-0.82,2.039-1.568l0.941,1.089c-0.561,0.617-1.057,1.092-1.486,1.428c-0.429,0.336-0.889,0.617-1.378,0.842
				c-0.49,0.226-0.974,0.391-1.453,0.496c-0.478,0.104-0.999,0.157-1.56,0.157c-2.08,0-3.67-0.691-4.771-2.072
				c-1.101-1.381-1.651-3.376-1.651-5.984c0-1.629,0.308-3.073,0.925-4.334c0.616-1.26,1.48-2.231,2.592-2.914
				c1.112-0.682,2.394-1.023,3.847-1.023c0.902,0,1.736,0.052,2.501,0.157C53.114,40.697,53.881,40.864,54.652,41.096z"/>
			<path id="XMLID_521_" d="M61.879,43.346h0.068c1.386-1.826,3.246-3.178,5.883-3.178c2.975,0,4.801,1.86,4.801,4.733v8.013
				c0,0.98,0.405,1.352,1.352,1.352h1.893v2.231h-9.872v-2.231h1.284c0.947,0,1.352-0.372,1.352-1.352v-7.742
				c0-1.724-1.183-2.367-2.975-2.367c-1.758,0-3.787,1.859-3.787,4.834v5.274c0,0.98,0.406,1.352,1.352,1.352h1.319v2.231h-9.94
				v-2.231h1.927c0.947,0,1.352-0.372,1.352-1.352V37.667c0-0.98-0.405-1.352-1.352-1.352h-1.927v-2.231h7.269V43.346z"/>
			<path id="XMLID_518_" d="M85.378,46.296v-1.833c0-1.277-0.206-2.165-0.619-2.666c-0.413-0.501-1.131-0.751-2.154-0.751
				c-0.749,0-1.381,0.184-1.899,0.553c-0.517,0.369-0.776,0.807-0.776,1.313c0,0.044,0.022,0.193,0.066,0.446
				c0.044,0.253,0.066,0.473,0.066,0.66c0,0.418-0.146,0.765-0.438,1.04c-0.292,0.275-0.663,0.413-1.115,0.413
				c-0.473,0-0.856-0.148-1.147-0.446c-0.292-0.297-0.438-0.698-0.438-1.205c0-0.958,0.564-1.794,1.692-2.509
				c1.128-0.715,2.501-1.073,4.119-1.073c1.904,0,3.304,0.419,4.201,1.255c0.897,0.836,1.346,2.141,1.346,3.913v7.841
				c0,0.584,0.077,1.002,0.231,1.255c0.154,0.253,0.402,0.38,0.743,0.38c0.264,0,0.495-0.047,0.693-0.14
				c0.198-0.094,0.429-0.261,0.693-0.504l0.413,0.462c-0.484,0.671-1.029,1.188-1.634,1.551c-0.606,0.363-1.211,0.545-1.816,0.545
				c-0.55,0-0.996-0.171-1.337-0.512c-0.341-0.341-0.605-0.891-0.792-1.651 M85.378,53.279v-6.075"/>
			<path id="XMLID_515_" d="M105.026,56.769l0.033-0.676c-0.721,0.654-1.533,0.98-2.434,0.98c-0.901,0-1.668-0.158-2.299-0.473
				c-0.631-0.315-1.149-0.738-1.555-1.268c-0.406-0.53-0.699-1.138-0.879-1.826c-0.18-0.687-0.271-1.403-0.271-2.147v-4.192
				c0-3.854,1.795-5.781,5.385-5.781c0.583,0,1.257,0.248,2.02,0.744V36.28c0-0.203-0.632-0.428-1.894-0.676v-1.556h5.139v20.185
				c0,0.405,0.63,0.733,1.894,0.98v1.555H105.026z M103.919,55.247c0.224,0,0.592-0.169,1.107-0.507V43.481
				c-1.029-0.383-1.521-0.575-1.476-0.575h-0.1c-1.655,0-2.493,2.074-2.515,6.221C100.935,53.207,101.93,55.247,103.919,55.247z"/>
			<path id="XMLID_512_" d="M124.665,50.522l0.611,0.363c-0.936,2.036-2.023,3.55-3.261,4.54c-1.238,0.99-2.666,1.486-4.284,1.486
				c-2.014,0-3.654-0.738-4.919-2.212c-1.266-1.475-1.899-3.401-1.899-5.778c0-2.619,0.682-4.732,2.047-6.339
				c1.365-1.607,3.147-2.41,5.349-2.41c1.783,0,3.219,0.559,4.309,1.676c1.089,1.117,1.695,2.655,1.816,4.614h-10.962v0.363
				c0,2.256,0.525,4.056,1.577,5.398c1.051,1.343,2.446,2.014,4.185,2.014c1.078,0,2.069-0.308,2.972-0.925
				C123.107,52.696,123.927,51.766,124.665,50.522z M113.587,45.47h6.554c0.429,0,0.687-0.038,0.776-0.116
				c0.088-0.077,0.132-0.242,0.132-0.495c0-1.034-0.322-1.896-0.966-2.583c-0.644-0.688-1.461-1.032-2.452-1.032
				c-1.133,0-2.055,0.369-2.765,1.106C114.157,43.088,113.73,44.128,113.587,45.47z"/>
			<path id="XMLID_510_" d="M132.279,42.68l4.342-1.766h0.726v5.365c1.133-1.937,2.146-3.31,3.037-4.119
				c0.891-0.809,1.805-1.214,2.74-1.214c0.363,0,0.798,0.083,1.304,0.248v5.085h-1.172c-0.011-1.992-0.589-2.988-1.734-2.988
				c-1.133,0-2.143,0.927-3.029,2.782c-0.886,1.854-1.329,3.954-1.329,6.298c0,1.387,0.256,2.29,0.768,2.708
				c0.512,0.418,1.489,0.627,2.931,0.627v0.792h-8.584v-0.792c0.902-0.022,1.551-0.217,1.948-0.586
				c0.396-0.369,0.594-1.032,0.594-1.989v-8.568c0-0.968-0.357-1.452-1.073-1.452c-0.297,0-0.787,0.121-1.469,0.363V42.68z"/>
			<path id="XMLID_507_" d="M144.825,49.162c0-5.443,3.077-9.162,7.641-9.162c3.719,0,6.085,2.062,6.085,5.849
				c0,0.44-0.033,0.879-0.068,1.082h-10.751c-0.033,0.338-0.033,0.676-0.033,1.048c0,4.53,2.096,7.201,5.341,7.201
				c1.758,0,3.314-0.642,4.97-1.826l0.473,0.777c-1.724,1.69-4.327,2.84-6.762,2.84C147.665,56.972,144.825,54.098,144.825,49.162z
				 M147.834,45.916h7.505c0.034-0.372,0.068-0.676,0.068-1.014c0-2.4-1.048-3.956-3.178-3.956
				C150.37,40.946,148.409,42.468,147.834,45.916z"/>
			<path id="XMLID_505_" d="M159.41,36.044v-0.363c0.308-0.099,0.649-0.204,1.024-0.314c0.553-0.176,1.371-0.446,2.456-0.809h0.78
				c0,0.529,0,0.832,0,0.909c0,9.043-0.028,14.434-0.083,16.174c-0.033,1.025-0.05,1.57-0.05,1.636c0,1.233,0.05,1.922,0.149,2.065
				c0.132,0.199,0.536,0.336,1.213,0.413c0.677,0.077,1.076,0.154,1.197,0.231c0.088,0.044,0.132,0.121,0.132,0.231
				c0,0.121-0.024,0.206-0.074,0.256c-0.049,0.05-0.14,0.074-0.272,0.074c-0.078,0-0.655-0.019-1.734-0.057l-2.162-0.075
				l-2.774,0.132c-0.176,0.011-0.308-0.023-0.396-0.101c-0.066-0.056-0.099-0.136-0.099-0.237c0-0.113,0.036-0.194,0.107-0.246
				c0.072-0.051,0.468-0.137,1.189-0.258c0.721-0.121,1.133-0.223,1.238-0.305c0.104-0.083,0.173-0.267,0.206-0.553
				c0.043-0.396,0.066-1.513,0.066-3.351l-0.016-3.797l0.05-3.929l-0.016-3.929l0.049-1.932c0-0.385-0.061-0.663-0.182-0.834
				c-0.121-0.171-0.379-0.338-0.776-0.503C160.038,36.33,159.63,36.154,159.41,36.044z"/>
			<path id="XMLID_502_" d="M181.211,56.201c-0.517,0.187-0.971,0.338-1.361,0.454c-0.391,0.116-0.834,0.174-1.329,0.174
				c-0.859,0-1.544-0.201-2.056-0.603c-0.512-0.402-0.839-0.988-0.982-1.758h-0.099c-0.716,0.792-1.484,1.398-2.303,1.816
				c-0.82,0.418-1.808,0.628-2.963,0.628c-1.222,0-2.226-0.375-3.012-1.123c-0.787-0.748-1.18-1.728-1.18-2.938
				c0-0.627,0.088-1.189,0.264-1.684c0.176-0.496,0.44-0.941,0.792-1.337c0.275-0.33,0.638-0.625,1.089-0.884
				c0.451-0.258,0.875-0.465,1.271-0.619c0.496-0.187,1.499-0.534,3.013-1.04c1.513-0.506,2.534-0.902,3.062-1.189v-1.634
				c0-0.143-0.031-0.418-0.091-0.825c-0.061-0.407-0.189-0.792-0.387-1.156c-0.221-0.407-0.531-0.762-0.933-1.065
				c-0.402-0.303-0.971-0.454-1.708-0.454c-0.506,0-0.977,0.085-1.412,0.256c-0.435,0.171-0.74,0.35-0.916,0.536
				c0,0.22,0.053,0.545,0.157,0.974c0.104,0.429,0.157,0.826,0.157,1.189c0,0.385-0.174,0.738-0.52,1.057
				c-0.347,0.319-0.829,0.478-1.445,0.478c-0.55,0-0.955-0.195-1.213-0.586c-0.259-0.391-0.388-0.828-0.388-1.312
				c0-0.506,0.179-0.991,0.536-1.453c0.357-0.462,0.823-0.875,1.395-1.238c0.496-0.308,1.095-0.569,1.8-0.784
				c0.704-0.215,1.392-0.322,2.063-0.322c0.925,0,1.731,0.063,2.419,0.19c0.688,0.127,1.312,0.399,1.874,0.817
				c0.561,0.407,0.988,0.96,1.279,1.659c0.291,0.699,0.437,1.599,0.437,2.699c0,1.574-0.016,2.969-0.05,4.185
				c-0.033,1.216-0.049,2.545-0.049,3.987c0,0.429,0.074,0.77,0.223,1.023c0.149,0.253,0.377,0.468,0.685,0.644
				c0.165,0.099,0.426,0.154,0.785,0.165c0.357,0.011,0.723,0.017,1.097,0.017V56.201z M175.449,47.484
				c-0.936,0.276-1.755,0.546-2.459,0.811c-0.705,0.265-1.36,0.595-1.965,0.993c-0.55,0.375-0.985,0.819-1.304,1.332
				c-0.32,0.513-0.479,1.122-0.479,1.828c0,0.916,0.239,1.588,0.718,2.018c0.478,0.43,1.087,0.645,1.824,0.645
				c0.781,0,1.469-0.19,2.063-0.571c0.594-0.381,1.095-0.83,1.502-1.348L175.449,47.484z"/>
			<path id="XMLID_500_" d="M191.217,54.825c0,0.57-0.523,1.056-1.566,1.46c-0.926,0.356-1.863,0.534-2.812,0.534
				c-2.575,0-3.863-1.371-3.863-4.112v-6.444c0-0.819-0.066-1.32-0.196-1.504c-0.131-0.184-0.564-0.365-1.299-0.543
				c-0.19-0.047-0.285-0.231-0.285-0.552c0-0.344,0.071-0.552,0.214-0.623c1.282-0.629,2.397-1.756,3.346-3.382
				c0.13-0.225,0.385-0.297,0.765-0.214c0.261,0.083,0.397,0.237,0.409,0.463l0.071,2.225c0,0.166,0.029,0.285,0.089,0.356
				c0.083,0.107,0.273,0.16,0.57,0.16h3.969c0.225,0,0.225,0.279,0,0.837c-0.273,0.676-0.676,1.015-1.21,1.015h-2.688
				c-0.463,0-0.748,0.077-0.854,0.231c-0.083,0.107-0.125,0.398-0.125,0.872v5.821c0,1.472,0.13,2.403,0.392,2.795
				c0.344,0.498,1.145,0.748,2.403,0.748c0.415,0,0.919-0.068,1.513-0.205c0.593-0.136,0.908-0.205,0.943-0.205
				C191.146,54.558,191.217,54.647,191.217,54.825z"/>
			<path id="XMLID_497_" d="M198.861,40.93c2.289,0,4.127,0.869,5.514,2.608c1.177,1.486,1.766,3.192,1.766,5.118
				c0,1.354-0.325,2.724-0.974,4.111c-0.65,1.387-1.544,2.432-2.683,3.136c-1.139,0.704-2.408,1.057-3.806,1.057
				c-2.278,0-4.088-0.908-5.431-2.724c-1.133-1.53-1.7-3.246-1.7-5.151c0-1.387,0.344-2.765,1.032-4.135
				c0.688-1.37,1.593-2.383,2.716-3.037C196.418,41.258,197.607,40.93,198.861,40.93z M198.349,42.003
				c-0.583,0-1.169,0.174-1.758,0.52c-0.589,0.347-1.064,0.955-1.428,1.824c-0.363,0.869-0.545,1.986-0.545,3.351
				c0,2.201,0.438,4.1,1.313,5.696c0.875,1.596,2.028,2.394,3.458,2.394c1.067,0,1.948-0.44,2.641-1.321
				c0.693-0.88,1.04-2.394,1.04-4.54c0-2.686-0.578-4.798-1.734-6.34C200.556,42.532,199.56,42.003,198.349,42.003z"/>
			<path id="XMLID_495_" d="M216.474,40.905v5.169h-0.555c-0.413-1.623-0.947-2.727-1.602-3.311
				c-0.655-0.584-1.495-0.876-2.52-0.876c-0.769,0-1.388,0.203-1.858,0.609c-0.47,0.406-0.705,0.858-0.705,1.356
				c0,0.612,0.178,1.139,0.534,1.581c0.328,0.456,1.018,0.94,2.072,1.452l2.414,1.153c2.236,1.096,3.353,2.535,3.353,4.315
				c0,1.381-0.52,2.496-1.559,3.343c-1.04,0.847-2.207,1.271-3.503,1.271c-0.926,0-1.979-0.171-3.161-0.513
				c-0.37-0.1-0.669-0.15-0.897-0.15c-0.256,0-0.456,0.142-0.598,0.427h-0.555v-5.404h0.555c0.313,1.538,0.904,2.698,1.773,3.482
				c0.869,0.783,1.844,1.175,2.926,1.175c0.755,0,1.374-0.224,1.858-0.673c0.484-0.449,0.726-0.986,0.726-1.613
				c0-0.755-0.267-1.392-0.801-1.912c-0.534-0.52-1.602-1.175-3.204-1.965c-1.602-0.79-2.652-1.506-3.151-2.147
				c-0.498-0.627-0.748-1.424-0.748-2.392c0-1.239,0.427-2.278,1.282-3.119c0.854-0.84,1.965-1.26,3.332-1.26
				c0.584,0,1.303,0.128,2.157,0.384c0.555,0.171,0.933,0.256,1.132,0.256c0.171,0,0.306-0.039,0.406-0.117
				c0.1-0.078,0.214-0.253,0.342-0.523H216.474z"/>
		</g>
		<g id="XMLID_488_">
			<g id="XMLID_491_">
				<path id="XMLID_492_" style="fill-rule:evenodd;clip-rule:evenodd;" d="M94.6,15.646c0.242,0.029,0.422,0.051,0.627,0.075
					c0.014,0.717-0.038,1.419,0.242,2.081c0.115-0.335,0.189-0.667,0.214-1.001c0.027-0.356,0.006-0.714,0.006-1.08
					c0.202-0.028,0.355-0.051,0.556-0.079c0-0.553,0-1.096,0-1.644c0.134-0.015,0.218-0.031,0.303-0.033
					c0.754-0.021,0.752-0.021,0.814-0.794c0.091-1.12,0.391-2.134,1.394-2.803c0.216-0.144,0.446-0.289,0.607-0.485
					c0.221-0.269,0.478-0.315,0.8-0.315c3.977,0.005,7.953-0.001,11.929-0.003c0.131,0,0.262-0.007,0.39,0.006
					c0.282,0.029,0.475,0.132,0.517,0.466c0.085,0.687,0.239,1.367,0.313,2.056c0.174,1.646,0.019,3.231-0.929,4.661
					c-0.693,1.044-1.434,2.072-1.505,3.43c-0.206,0-0.377,0-0.548,0c-5.581,0-11.163-0.001-16.745,0.001
					c-0.26,0-0.522,0.004-0.779,0.037c-1.323,0.172-2.309,1.284-2.314,2.617c-0.007,1.648,0.01,3.296-0.01,4.943
					c-0.005,0.376,0.125,0.459,0.473,0.451c0.751-0.017,1.503,0.014,2.255,0.014c11.163-0.006,22.326-0.014,33.49-0.022
					c0.125,0,0.251-0.02,0.37-0.03c0.022-0.071,0.045-0.111,0.045-0.151c-0.002-1.779,0.031-3.557-0.022-5.334
					c-0.04-1.349-1.091-2.393-2.439-2.492c-0.734-0.054-1.473-0.031-2.211-0.033c-1.503-0.004-1.503-0.001-1.678-1.52
					c-0.15-1.307-0.371-2.611-0.428-3.923c-0.075-1.712-0.019-3.429-0.019-5.103c0.417-0.15,0.454,0.021,0.451,0.263
					c-0.006,0.573-0.002,1.147-0.002,1.769c0.355,0,0.656,0.013,0.954-0.004c0.243-0.015,0.35,0.077,0.428,0.31
					c0.133,0.395,0.277,0.796,0.49,1.15c0.315,0.526,0.769,0.528,1.078,0.001c0.224-0.381,0.413-0.802,0.52-1.23
					c0.649-2.592,0.669-5.213,0.2-7.83c-0.133-0.741-0.412-1.472-0.731-2.157c-0.245-0.526-0.74-0.514-1.048-0.016
					c-0.217,0.351-0.371,0.75-0.499,1.145c-0.088,0.268-0.212,0.385-0.49,0.348c-0.114-0.015-0.231-0.003-0.346-0.003
					c-0.557,0-0.556,0-0.555,0.57c0.001,0.634,0,1.268,0,1.902c-0.035,0.002-0.069,0.003-0.105,0.005
					c-0.015-0.137-0.022-0.275-0.047-0.409c-0.105-0.538-0.203-1.077-0.328-1.609c-0.096-0.408-0.35-0.72-0.76-0.815
					c-0.571-0.132-1.153-0.257-1.735-0.287c-0.478-0.026-0.963,0.091-1.491,0.149c0-0.831,0.007-1.623-0.009-2.416
					c-0.001-0.102-0.126-0.202-0.193-0.303c-0.066,0.104-0.184,0.206-0.187,0.311c-0.018,0.665-0.04,1.332,0.002,1.995
					c0.027,0.436-0.122,0.605-0.544,0.611c-0.243,0.004-0.487,0.055-0.729,0.099c-2.345,0.419-4.688,0.848-7.034,1.258
					c-1.976,0.344-3.936,0.834-5.969,0.676c-0.143-0.011-0.299,0.011-0.428-0.038c-1.226-0.466-2.318-1.08-2.663-2.491
					c-0.034-0.14-0.101-0.271-0.149-0.407c-0.268-0.758-0.812-1.081-1.604-1.038c-0.328,0.018-0.656,0.003-1.132,0.003
					c0.149-0.287,0.276-0.459,0.326-0.65c0.04-0.158,0.006-0.481-0.029-0.486c-0.244-0.032-0.496-0.002-0.745,0.008
					c0.01,0.172-0.012,0.353,0.037,0.512c0.056,0.18,0.177,0.339,0.27,0.508c-0.035,0.039-0.07,0.078-0.106,0.117
					c-0.642,0-1.283,0-1.936,0c0,4.29,0,8.519,0,12.803c0.377,0,0.731,0,1.12,0C94.6,14.546,94.6,15.076,94.6,15.646z"/>
			</g>
			<g id="XMLID_489_">
				<path id="XMLID_490_" style="fill-rule:evenodd;clip-rule:evenodd;" d="M94.6,15.646c0-0.57,0-1.1,0-1.682
					c-0.389,0-0.743,0-1.12,0c0-4.284,0-8.513,0-12.803c0.653,0,1.295,0,1.936,0c0.036-0.039,0.071-0.078,0.106-0.117
					c-0.093-0.169-0.214-0.328-0.27-0.508c-0.049-0.159-0.027-0.341-0.037-0.512c0.25-0.01,0.501-0.04,0.745-0.008
					C95.996,0.019,96.03,0.342,95.99,0.5c-0.049,0.191-0.177,0.363-0.326,0.65c0.476,0,0.805,0.015,1.132-0.003
					c0.791-0.042,1.335,0.281,1.604,1.038c0.048,0.136,0.115,0.267,0.149,0.407c0.345,1.411,1.437,2.026,2.663,2.491
					c0.129,0.048,0.285,0.027,0.428,0.038c2.033,0.158,3.993-0.332,5.969-0.676c2.346-0.41,4.689-0.839,7.034-1.258
					c0.241-0.044,0.486-0.095,0.729-0.099c0.422-0.006,0.571-0.175,0.544-0.611c-0.042-0.663-0.02-1.33-0.002-1.995
					c0.003-0.105,0.121-0.208,0.187-0.311c0.067,0.101,0.192,0.201,0.193,0.303c0.016,0.793,0.009,1.586,0.009,2.416
					c0.528-0.059,1.012-0.175,1.491-0.149c0.582,0.031,1.164,0.155,1.735,0.287c0.411,0.095,0.665,0.408,0.76,0.815
					c0.125,0.533,0.223,1.072,0.328,1.609c0.025,0.134,0.033,0.272,0.047,0.409c0.036-0.002,0.07-0.003,0.105-0.005
					c0-0.634,0.001-1.268,0-1.902c-0.001-0.57-0.001-0.57,0.555-0.57c0.115,0,0.233-0.012,0.346,0.003
					c0.278,0.037,0.403-0.08,0.49-0.348c0.129-0.395,0.282-0.794,0.499-1.145c0.308-0.498,0.803-0.511,1.048,0.016
					c0.32,0.685,0.598,1.417,0.731,2.157c0.469,2.617,0.448,5.238-0.2,7.83c-0.107,0.428-0.296,0.848-0.52,1.23
					c-0.309,0.526-0.763,0.524-1.078-0.001c-0.213-0.354-0.357-0.755-0.49-1.15c-0.078-0.233-0.185-0.325-0.428-0.31
					c-0.299,0.017-0.599,0.004-0.954,0.004c0-0.622-0.004-1.196,0.002-1.769c0.003-0.242-0.035-0.413-0.451-0.263
					c0,1.675-0.056,3.392,0.019,5.103c0.057,1.312,0.278,2.616,0.428,3.923c0.175,1.519,0.175,1.516,1.678,1.52
					c0.737,0.002,1.477-0.021,2.211,0.033c1.347,0.099,2.399,1.143,2.439,2.492c0.053,1.777,0.02,3.555,0.022,5.334
					c0,0.04-0.023,0.079-0.045,0.151c-0.119,0.01-0.245,0.03-0.37,0.03c-11.163,0.009-22.327,0.016-33.49,0.022
					c-0.751,0.001-1.504-0.03-2.255-0.014c-0.347,0.008-0.477-0.075-0.473-0.451c0.02-1.648,0.003-3.296,0.01-4.943
					c0.005-1.334,0.991-2.446,2.314-2.617c0.257-0.033,0.519-0.037,0.779-0.037c5.581-0.001,11.164-0.001,16.745-0.001
					c0.171,0,0.341,0,0.548,0c0.071-1.357,0.812-2.385,1.505-3.43c0.948-1.43,1.104-3.016,0.929-4.661
					c-0.073-0.688-0.227-1.368-0.313-2.056c-0.042-0.334-0.235-0.438-0.517-0.466c-0.129-0.014-0.26-0.006-0.39-0.006
					c-3.976,0.002-7.952,0.008-11.929,0.003c-0.321,0-0.578,0.046-0.8,0.315c-0.161,0.196-0.392,0.341-0.607,0.485
					c-1.004,0.669-1.304,1.684-1.394,2.803c-0.062,0.773-0.061,0.773-0.814,0.794c-0.085,0.002-0.17,0.019-0.303,0.033
					c0,0.548,0,1.09,0,1.644c-0.201,0.028-0.354,0.051-0.556,0.079c0,0.366,0.021,0.725-0.006,1.08
					c-0.025,0.335-0.099,0.667-0.214,1.001c-0.281-0.662-0.228-1.364-0.242-2.081C95.023,15.696,94.842,15.675,94.6,15.646z"/>
			</g>
		</g>
		<path id="XMLID_467_" d="M81.008,56.887c-0.839,0-1.594-0.26-2.244-0.77l0.9-1.147c0.444,0.348,0.962,0.493,1.544,0.451
			l0.104,1.455C81.211,56.883,81.109,56.887,81.008,56.887z M83.67,56.141l-0.675-1.292c0.543-0.284,1.115-0.666,1.698-1.135
			l0.914,1.136C84.949,55.379,84.298,55.813,83.67,56.141z M77.268,54.104l-0.052-0.116c-0.28-0.634-0.421-1.259-0.421-1.857
			c0-0.191,0.015-0.38,0.043-0.564l1.441,0.22c-0.017,0.111-0.026,0.227-0.026,0.344c0,0.393,0.1,0.82,0.297,1.268l0.043,0.096
			L77.268,54.104z M79.091,50.298l-1.038-1.025c0.501-0.507,1.157-0.978,1.951-1.399l0.684,1.288
			C80.025,49.514,79.488,49.896,79.091,50.298z M82.596,48.351l-0.475-1.378c0.675-0.232,1.406-0.443,2.174-0.624l0.336,1.419
			C83.91,47.937,83.225,48.134,82.596,48.351z M86.752,47.34l-0.285-1.43c0.739-0.147,1.441-0.308,2.087-0.479l0.373,1.41
			C88.253,47.019,87.521,47.187,86.752,47.34z M91.081,46.17l-0.504-1.368c0.72-0.265,1.353-0.552,1.883-0.851l0.718,1.269
			C92.58,45.558,91.875,45.877,91.081,46.17z M95.085,43.707l-1.119-0.936c0.355-0.424,0.527-0.849,0.527-1.299
			c0-0.057-0.003-0.115-0.009-0.173l1.452-0.14c0.01,0.105,0.015,0.209,0.015,0.313C95.952,42.267,95.66,43.019,95.085,43.707z
			 M93.749,39.713c-0.346-0.442-0.814-0.902-1.39-1.366l-0.051-0.041l0.911-1.138l0.061,0.048c0.657,0.53,1.203,1.069,1.617,1.598
			L93.749,39.713z M90.596,36.989c-0.549-0.405-1.126-0.816-1.763-1.256l0.828-1.2c0.65,0.449,1.239,0.868,1.801,1.283
			L90.596,36.989z M87.031,34.519c-0.617-0.408-1.228-0.806-1.826-1.195l0.795-1.222c0.602,0.391,1.216,0.791,1.836,1.201
			L87.031,34.519z M83.368,32.124c-0.721-0.476-1.302-0.87-1.828-1.239l0.838-1.193c0.515,0.361,1.085,0.747,1.794,1.216
			L83.368,32.124z M79.748,29.555c-0.661-0.525-1.218-1.017-1.702-1.504l1.034-1.028c0.444,0.446,0.959,0.901,1.575,1.391
			L79.748,29.555z M76.57,26.229c-0.466-0.749-0.764-1.519-0.887-2.289l1.44-0.23c0.093,0.585,0.318,1.158,0.686,1.749L76.57,26.229
			z M77.313,22.08l-1.26-0.734c0.376-0.645,1.002-1.223,1.859-1.719l0.729,1.263C78.007,21.257,77.56,21.657,77.313,22.08z
			 M80.512,20.082l-0.459-1.384c0.653-0.216,1.389-0.415,2.187-0.59l0.312,1.424C81.803,19.697,81.117,19.882,80.512,20.082z
			 M84.66,19.148l-0.218-1.442c0.694-0.105,1.437-0.199,2.207-0.279l0.151,1.45C86.052,18.955,85.332,19.046,84.66,19.148z
			 M88.958,18.693l-0.099-1.455c0.714-0.049,1.457-0.088,2.21-0.117l0.056,1.457C90.386,18.607,89.657,18.645,88.958,18.693z
			 M95.457,18.533c-0.007,0-0.848-0.024-2.161-0.009l-0.016-1.458c1.358-0.015,2.219,0.009,2.219,0.009L95.457,18.533z"/>
	</g>
</g>
<g id="XMLID_149_">
	<g id="XMLID_686_">
		<g id="XMLID_687_">
			<g id="XMLID_688_">
				<g id="XMLID_714_">
					<path id="XMLID_762_" style="fill-rule:evenodd;clip-rule:evenodd;" d="M269.223,22.657c0,0-0.604-0.078-1.781-0.078
						c-1.174-0.029-1.778,0.078-1.778,0.078l0,0l-0.064-0.864l0.811-0.082l-0.287-4.388h-1.192v-1.201l0,0
						c0,0,0.199-0.189,2.511-0.189c2.316,0,2.512,0.189,2.512,0.189l0,0v1.201h-1.194l-0.284,4.388l0.811,0.082L269.223,22.657
						L269.223,22.657z"/>
					<path id="XMLID_761_" style="fill-rule:evenodd;clip-rule:evenodd;" d="M265.174,22.78c0,0-0.591,0.169-1.663,0.601
						c-1.091,0.458-1.622,0.79-1.622,0.79l0,0l-0.388-0.79l0.718-0.373l-1.915-3.952l-1.113,0.476l-0.443-1.118l0,0
						c0,0,0.143-0.244,2.268-1.156c2.131-0.888,2.389-0.808,2.389-0.808l0,0l0.45,1.126l-1.114,0.442l1.398,4.184l0.77-0.265
						L265.174,22.78L265.174,22.78z"/>
					<path id="XMLID_760_" style="fill-rule:evenodd;clip-rule:evenodd;" d="M261.488,24.48c0,0-0.49,0.372-1.321,1.195
						c-0.833,0.849-1.195,1.371-1.195,1.371l0,0l-0.649-0.578l0.528-0.645l-3.244-2.896l-0.855,0.869l-0.825-0.846l0,0
						c0,0,0.018-0.292,1.66-1.948c1.615-1.674,1.902-1.696,1.902-1.696l0,0l0.833,0.851l-0.849,0.87l2.83,3.309l0.631-0.539
						L261.488,24.48L261.488,24.48z"/>
					<path id="XMLID_759_" style="fill-rule:evenodd;clip-rule:evenodd;" d="M258.728,27.455c0,0-0.329,0.542-0.774,1.64
						c-0.465,1.093-0.608,1.723-0.608,1.723l0,0l-0.807-0.275l0.244-0.811l-4.079-1.404l-0.464,1.142l-1.1-0.46l0,0
						c0,0-0.077-0.276,0.815-2.46c0.895-2.173,1.113-2.301,1.113-2.301l0,0l1.098,0.462l-0.445,1.138l3.855,1.943l0.377-0.747
						L258.728,27.455L258.728,27.455z"/>
					<path id="XMLID_758_" style="fill-rule:evenodd;clip-rule:evenodd;" d="M257.269,31.288c0,0-0.081,0.622-0.099,1.819
						c0,1.202,0.099,1.823,0.099,1.823l0,0l-0.848,0.068l-0.087-0.838l-4.299,0.296v1.216h-1.172l0,0c0,0-0.184-0.209-0.184-2.566
						c0-2.359,0.184-2.586,0.184-2.586l0,0h1.172v1.246l4.299,0.292l0.087-0.833L257.269,31.288L257.269,31.288z"/>
					<path id="XMLID_757_" style="fill-rule:evenodd;clip-rule:evenodd;" d="M257.367,35.403c0,0,0.144,0.597,0.587,1.679
						c0.427,1.118,0.774,1.649,0.774,1.649l0,0l-0.774,0.403l-0.377-0.731l-3.855,1.951l0.445,1.116l-1.098,0.477l0,0
						c0,0-0.218-0.149-1.113-2.321c-0.892-2.173-0.815-2.44-0.815-2.44l0,0l1.1-0.458l0.464,1.139l4.079-1.406l-0.244-0.788
						L257.367,35.403L257.367,35.403z"/>
					<path id="XMLID_756_" style="fill-rule:evenodd;clip-rule:evenodd;" d="M258.991,39.152c0,0,0.366,0.497,1.176,1.366
						c0.831,0.843,1.335,1.196,1.335,1.196l0,0l-0.567,0.683l-0.631-0.534l-2.83,3.305l0.849,0.875l-0.833,0.853l0,0
						c0,0-0.287-0.025-1.902-1.702c-1.642-1.683-1.66-1.946-1.66-1.946l0,0l0.825-0.852l0.855,0.879l3.244-2.907l-0.528-0.642
						L258.991,39.152L258.991,39.152z"/>
					<path id="XMLID_755_" style="fill-rule:evenodd;clip-rule:evenodd;" d="M261.91,42.024c0,0,0.51,0.309,1.581,0.772
						c1.092,0.48,1.703,0.618,1.703,0.618l0,0l-0.285,0.83l-0.77-0.249l-1.382,4.158l1.117,0.476l-0.469,1.116l0,0
						c0,0-0.258,0.083-2.389-0.823c-2.125-0.889-2.249-1.146-2.249-1.146l0,0l0.445-1.113l1.118,0.476l1.904-3.953l-0.733-0.39
						L261.91,42.024L261.91,42.024z"/>
					<path id="XMLID_754_" style="fill-rule:evenodd;clip-rule:evenodd;" d="M265.681,43.512c0,0,0.587,0.09,1.762,0.11
						c1.177,0.015,1.781-0.11,1.781-0.11l0,0l0.084,0.898l-0.83,0.06l0.284,4.389h1.214v1.216l0,0c0,0-0.217,0.167-2.533,0.167
						c-2.312,0-2.511-0.167-2.511-0.167l0,0v-1.216h1.192l0.287-4.389l-0.811-0.06L265.681,43.512L265.681,43.512z"/>
					<path id="XMLID_753_" style="fill-rule:evenodd;clip-rule:evenodd;" d="M269.729,43.437c0,0,0.593-0.152,1.682-0.602
						c1.099-0.46,1.605-0.788,1.605-0.788l0,0l0.406,0.788l-0.728,0.37l1.903,3.956l1.113-0.479l0.451,1.113l0,0
						c0,0-0.129,0.255-2.276,1.161c-2.131,0.892-2.394,0.816-2.394,0.816l0,0l-0.442-1.118l1.114-0.459l-1.373-4.176l-0.793,0.266
						L269.729,43.437L269.729,43.437z"/>
					<path id="XMLID_752_" style="fill-rule:evenodd;clip-rule:evenodd;" d="M273.467,41.76c0,0,0.476-0.377,1.314-1.203
						c0.83-0.846,1.192-1.365,1.192-1.365l0,0l0.65,0.581l-0.53,0.636l3.243,2.9l0.849-0.866l0.837,0.843l0,0
						c0,0-0.025,0.292-1.661,1.954c-1.625,1.672-1.907,1.692-1.907,1.692l0,0l-0.831-0.842l0.848-0.873l-2.836-3.313l-0.63,0.541
						L273.467,41.76L273.467,41.76z"/>
					<path id="XMLID_751_" style="fill-rule:evenodd;clip-rule:evenodd;" d="M276.258,38.753c0,0,0.306-0.527,0.772-1.63
						c0.468-1.075,0.587-1.698,0.587-1.698l0,0l0.833,0.268l-0.248,0.792l4.076,1.407l0.465-1.142l1.072,0.457l0,0
						c0,0,0.086,0.269-0.786,2.444c-0.892,2.188-1.139,2.317-1.139,2.317l0,0l-1.089-0.458l0.46-1.14l-3.846-1.944l-0.384,0.746
						L276.258,38.753L276.258,38.753z"/>
					<path id="XMLID_750_" style="fill-rule:evenodd;clip-rule:evenodd;" d="M277.719,34.907c0,0,0.08-0.621,0.099-1.818
						c0-1.198-0.099-1.821-0.099-1.821l0,0l0.851-0.064l0.081,0.834l4.299-0.297v-1.22h1.174l0,0c0,0,0.177,0.204,0.177,2.568
						c0,2.356-0.177,2.564-0.177,2.564l0,0h-1.174V34.43l-4.299-0.285l-0.081,0.829L277.719,34.907L277.719,34.907z"/>
					<path id="XMLID_749_" style="fill-rule:evenodd;clip-rule:evenodd;" d="M277.617,30.747c0,0-0.162-0.604-0.587-1.691
						c-0.451-1.118-0.772-1.666-0.772-1.666l0,0l0.772-0.388l0.364,0.748l3.866-1.943l-0.46-1.142l1.089-0.477l0,0
						c0,0,0.247,0.146,1.118,2.322c0.893,2.17,0.807,2.439,0.807,2.439l0,0l-1.092,0.453l-0.465-1.135l-4.072,1.429l0.243,0.783
						L277.617,30.747L277.617,30.747z"/>
					<path id="XMLID_748_" style="fill-rule:evenodd;clip-rule:evenodd;" d="M275.931,26.984c0,0-0.364-0.497-1.172-1.364
						c-0.831-0.852-1.319-1.2-1.319-1.2l0,0l0.55-0.685l0.627,0.541l2.837-3.321l-0.855-0.865l0.833-0.846l0,0
						c0,0,0.285,0.025,1.904,1.697c1.646,1.677,1.662,1.948,1.662,1.948l0,0l-0.831,0.847l-0.848-0.867l-3.242,2.894l0.523,0.642
						L275.931,26.984L275.931,26.984z"/>
					<path id="XMLID_747_" style="fill-rule:evenodd;clip-rule:evenodd;" d="M272.998,24.124c0,0-0.531-0.309-1.607-0.786
						c-1.069-0.471-1.681-0.593-1.681-0.593l0,0l0.265-0.835l0.79,0.25l1.378-4.163l-1.117-0.472l0.445-1.118l0,0
						c0,0,0.269-0.079,2.398,0.827c2.145,0.89,2.267,1.142,2.267,1.142l0,0l-0.44,1.119l-1.117-0.477l-1.909,3.95l0.711,0.368
						L272.998,24.124L272.998,24.124z"/>
					<path id="XMLID_746_" style="fill-rule:evenodd;clip-rule:evenodd;" d="M262.887,28.68c0,0-0.247,0.269-0.653,0.891
						c-0.402,0.6-0.546,0.949-0.546,0.949l0,0l-0.468-0.269l0.244-0.437l-2.291-1.335l-0.406,0.615l-0.607-0.415l0,0
						c0,0,0-0.168,0.768-1.365c0.793-1.201,0.959-1.242,0.959-1.242l0,0l0.589,0.414l-0.414,0.625l2.09,1.623l0.325-0.385
						L262.887,28.68L262.887,28.68z"/>
					<path id="XMLID_745_" style="fill-rule:evenodd;clip-rule:evenodd;" d="M261.564,30.818c0,0-0.128,0.346-0.262,1.073
						c-0.145,0.723-0.145,1.092-0.145,1.092l0,0l-0.524-0.058l0.043-0.503l-2.6-0.351l-0.139,0.748l-0.709-0.145l0,0
						c0,0-0.077-0.165,0.184-1.573c0.287-1.405,0.409-1.513,0.409-1.513l0,0l0.703,0.127l-0.141,0.742l2.553,0.707l0.125-0.497
						L261.564,30.818L261.564,30.818z"/>
					<path id="XMLID_744_" style="fill-rule:evenodd;clip-rule:evenodd;" d="M261.157,33.297c0,0,0.026,0.372,0.165,1.094
						c0.115,0.728,0.261,1.074,0.261,1.074l0,0l-0.504,0.144l-0.144-0.471l-2.536,0.676l0.145,0.728l-0.711,0.151l0,0
						c0,0-0.125-0.11-0.405-1.495c-0.278-1.421-0.202-1.571-0.202-1.571l0,0l0.709-0.138l0.139,0.734l2.616-0.349l-0.059-0.513
						L261.157,33.297L261.157,33.297z"/>
					<path id="XMLID_743_" style="fill-rule:evenodd;clip-rule:evenodd;" d="M261.703,35.755c0,0,0.167,0.331,0.552,0.936
						c0.398,0.598,0.665,0.888,0.665,0.888l0,0l-0.422,0.331l-0.301-0.394l-2.095,1.636l0.41,0.621l-0.587,0.419l0,0
						c0,0-0.165-0.051-0.954-1.253c-0.79-1.195-0.768-1.36-0.768-1.36l0,0l0.605-0.412l0.403,0.618l2.276-1.325L261.243,36
						L261.703,35.755L261.703,35.755z"/>
					<path id="XMLID_742_" style="fill-rule:evenodd;clip-rule:evenodd;" d="M263.125,37.785c0,0,0.28,0.25,0.871,0.661
						c0.587,0.419,0.936,0.56,0.936,0.56l0,0l-0.248,0.478l-0.442-0.248l-1.321,2.343l0.63,0.409l-0.403,0.617l0,0
						c0,0-0.161,0.026-1.339-0.791c-1.175-0.802-1.239-0.965-1.239-0.965l0,0l0.406-0.605l0.608,0.422l1.604-2.138l-0.386-0.329
						L263.125,37.785L263.125,37.785z"/>
					<path id="XMLID_741_" style="fill-rule:evenodd;clip-rule:evenodd;" d="M265.213,39.135c0,0,0.344,0.122,1.055,0.27
						c0.689,0.163,1.076,0.163,1.076,0.163l0,0l-0.066,0.533l-0.505-0.067l-0.325,2.676l0.712,0.145l-0.148,0.722l0,0
						c0,0-0.143,0.085-1.516-0.207c-1.397-0.268-1.5-0.41-1.5-0.41l0,0l0.143-0.731l0.729,0.145l0.675-2.585l-0.471-0.141
						L265.213,39.135L265.213,39.135z"/>
					<path id="XMLID_740_" style="fill-rule:evenodd;clip-rule:evenodd;" d="M267.648,39.568c0,0,0.368-0.019,1.07-0.144
						c0.713-0.148,1.057-0.289,1.057-0.289l0,0l0.14,0.515l-0.483,0.141l0.685,2.607l0.733-0.144l0.143,0.708l0,0
						c0,0-0.124,0.142-1.507,0.41c-1.371,0.292-1.513,0.207-1.513,0.207l0,0l-0.141-0.722l0.702-0.145l-0.345-2.676l-0.484,0.067
						L267.648,39.568L267.648,39.568z"/>
					<path id="XMLID_739_" style="fill-rule:evenodd;clip-rule:evenodd;" d="M270.059,39.027c0,0,0.324-0.162,0.933-0.558
						c0.605-0.41,0.867-0.683,0.867-0.683l0,0l0.325,0.441l-0.386,0.302l1.603,2.138l0.605-0.422l0.41,0.605l0,0
						c0,0-0.041,0.163-1.214,0.965c-1.176,0.817-1.343,0.791-1.343,0.791l0,0l-0.407-0.617l0.613-0.409l-1.317-2.323l-0.449,0.248
						L270.059,39.027L270.059,39.027z"/>
					<path id="XMLID_738_" style="fill-rule:evenodd;clip-rule:evenodd;" d="M272.081,37.579c0,0,0.241-0.29,0.652-0.888
						c0.405-0.589,0.552-0.936,0.552-0.936l0,0L273.745,36l-0.243,0.46l2.29,1.325l0.407-0.618l0.606,0.387l0,0
						c0,0,0,0.19-0.774,1.375c-0.784,1.193-0.948,1.264-0.948,1.264l0,0l-0.589-0.419l0.407-0.621l-2.087-1.636l-0.325,0.394
						L272.081,37.579L272.081,37.579z"/>
					<path id="XMLID_737_" style="fill-rule:evenodd;clip-rule:evenodd;" d="M273.423,35.464c0,0,0.124-0.367,0.262-1.074
						c0.137-0.722,0.159-1.117,0.159-1.117l0,0l0.508,0.063l-0.038,0.523l2.611,0.346l0.144-0.74l0.712,0.142l0,0
						c0,0,0.056,0.147-0.207,1.575c-0.278,1.382-0.406,1.487-0.406,1.487l0,0l-0.707-0.147l0.14-0.711l-2.534-0.694l-0.139,0.49
						L273.423,35.464L273.423,35.464z"/>
					<path id="XMLID_736_" style="fill-rule:evenodd;clip-rule:evenodd;" d="M273.844,32.972c0,0-0.022-0.379-0.159-1.102
						c-0.121-0.727-0.262-1.079-0.262-1.079l0,0l0.505-0.142l0.139,0.476l2.534-0.687l-0.14-0.742l0.707-0.149l0,0
						c0,0,0.128,0.104,0.406,1.509c0.287,1.432,0.207,1.579,0.207,1.579l0,0l-0.712,0.141l-0.144-0.74l-2.611,0.348l0.062,0.519
						L273.844,32.972L273.844,32.972z"/>
					<path id="XMLID_735_" style="fill-rule:evenodd;clip-rule:evenodd;" d="M273.304,30.48c0,0-0.166-0.337-0.552-0.952
						c-0.403-0.619-0.671-0.885-0.671-0.885l0,0l0.429-0.337l0.306,0.393l2.087-1.635l-0.407-0.623l0.608-0.407l0,0
						c0,0,0.162,0.039,0.929,1.237c0.79,1.208,0.774,1.371,0.774,1.371l0,0l-0.591,0.413l-0.422-0.625l-2.268,1.346l0.242,0.434
						L273.304,30.48L273.304,30.48z"/>
					<path id="XMLID_734_" style="fill-rule:evenodd;clip-rule:evenodd;" d="M271.859,28.411c0,0-0.284-0.25-0.867-0.661
						c-0.587-0.413-0.933-0.565-0.933-0.565l0,0l0.263-0.471l0.425,0.248l1.317-2.334l-0.613-0.417l0.407-0.621l0,0
						c0,0,0.167,0,1.343,0.788c1.173,0.799,1.214,0.969,1.214,0.969l0,0l-0.41,0.601l-0.605-0.418l-1.603,2.136l0.386,0.331
						L271.859,28.411L271.859,28.411z"/>
					<path id="XMLID_733_" style="fill-rule:evenodd;clip-rule:evenodd;" d="M269.758,27.064c0,0-0.353-0.119-1.04-0.281
						c-0.702-0.152-1.095-0.152-1.095-0.152l0,0l0.066-0.539l0.499,0.065l0.345-2.674l-0.722-0.145l0.137-0.722l0,0
						c0,0,0.148-0.08,1.519,0.207c1.401,0.268,1.5,0.393,1.5,0.393l0,0l-0.14,0.72l-0.729-0.141l-0.667,2.607l0.465,0.148
						L269.758,27.064L269.758,27.064z"/>
					<path id="XMLID_732_" style="fill-rule:evenodd;clip-rule:evenodd;" d="M267.32,26.649c0,0-0.388,0.024-1.074,0.147
						c-0.704,0.149-1.052,0.296-1.052,0.296l0,0l-0.163-0.525l0.49-0.145l-0.69-2.606l-0.711,0.152l-0.148-0.729l0,0
						c0,0,0.108-0.124,1.484-0.416c1.38-0.272,1.541-0.184,1.541-0.184l0,0l0.14,0.72l-0.726,0.148l0.34,2.651l0.506-0.043
						L267.32,26.649L267.32,26.649z"/>
					<path id="XMLID_731_" style="fill-rule:evenodd;clip-rule:evenodd;" d="M264.89,27.21c0,0-0.324,0.16-0.933,0.559
						c-0.591,0.412-0.874,0.678-0.874,0.678l0,0l-0.327-0.426l0.39-0.315l-1.6-2.127l-0.612,0.414l-0.404-0.629l0,0
						c0,0,0.059-0.145,1.212-0.944c1.177-0.809,1.361-0.789,1.361-0.789l0,0l0.387,0.619l-0.604,0.416l1.312,2.318l0.443-0.25
						L264.89,27.21L264.89,27.21z"/>
					<path id="XMLID_730_" style="fill-rule:evenodd;clip-rule:evenodd;" d="M264.178,31.022c0,0-0.125,0.181-0.287,0.597
						c-0.177,0.418-0.22,0.641-0.22,0.641l0,0l-0.306-0.103l0.082-0.287l-1.519-0.522l-0.187,0.419l-0.399-0.17l0,0
						c0,0-0.022-0.101,0.302-0.911c0.325-0.826,0.427-0.871,0.427-0.871l0,0l0.405,0.169l-0.184,0.431l1.469,0.729l0.129-0.29
						L264.178,31.022L264.178,31.022z"/>
					<path id="XMLID_729_" style="fill-rule:evenodd;clip-rule:evenodd;" d="M263.631,32.469c0,0-0.021,0.226-0.021,0.661
						c-0.021,0.457,0.04,0.678,0.04,0.678l0,0l-0.327,0.051l-0.036-0.336l-1.6,0.125v0.454h-0.445l0,0c0,0-0.06-0.084-0.06-0.954
						c0-0.887,0.06-0.971,0.06-0.971l0,0h0.445v0.46l1.6,0.093l0.015-0.307L263.631,32.469L263.631,32.469z"/>
					<path id="XMLID_728_" style="fill-rule:evenodd;clip-rule:evenodd;" d="M263.695,34.004c0,0,0.041,0.217,0.224,0.635
						c0.16,0.416,0.28,0.627,0.28,0.627l0,0l-0.28,0.137l-0.144-0.267l-1.461,0.724l0.184,0.414l-0.402,0.186l0,0
						c0,0-0.106-0.06-0.432-0.87c-0.32-0.804-0.302-0.908-0.302-0.908l0,0l0.41-0.184l0.178,0.431l1.524-0.54l-0.108-0.289
						L263.695,34.004L263.695,34.004z"/>
					<path id="XMLID_727_" style="fill-rule:evenodd;clip-rule:evenodd;" d="M264.3,35.403c0,0,0.14,0.187,0.443,0.496
						c0.31,0.331,0.517,0.453,0.517,0.453l0,0l-0.231,0.251l-0.222-0.189l-1.072,1.225l0.317,0.31l-0.291,0.334l0,0
						c0,0-0.113-0.021-0.741-0.644c-0.601-0.62-0.601-0.72-0.601-0.72l0,0l0.299-0.316l0.322,0.316l1.218-1.059l-0.207-0.253
						L264.3,35.403L264.3,35.403z"/>
					<path id="XMLID_726_" style="fill-rule:evenodd;clip-rule:evenodd;" d="M265.392,36.461c0,0,0.207,0.104,0.611,0.268
						c0.407,0.192,0.63,0.228,0.63,0.228l0,0l-0.104,0.311l-0.303-0.081l-0.505,1.546l0.425,0.198l-0.182,0.412l0,0
						c0,0-0.102,0.022-0.892-0.314c-0.79-0.331-0.856-0.434-0.856-0.434l0,0l0.191-0.412l0.402,0.181l0.712-1.487l-0.259-0.147
						L265.392,36.461L265.392,36.461z"/>
					<path id="XMLID_725_" style="fill-rule:evenodd;clip-rule:evenodd;" d="M266.792,36.998c0,0,0.242,0.043,0.668,0.043
						c0.449,0,0.67-0.043,0.67-0.043l0,0l0.021,0.328l-0.302,0.02l0.123,1.661l0.442-0.016v0.455l0,0c0,0-0.085,0.084-0.954,0.084
						c-0.849,0-0.932-0.084-0.932-0.084l0,0v-0.439h0.447l0.101-1.661l-0.305-0.02L266.792,36.998L266.792,36.998z"/>
					<path id="XMLID_724_" style="fill-rule:evenodd;clip-rule:evenodd;" d="M268.309,36.956c0,0,0.224-0.036,0.634-0.228
						c0.409-0.164,0.604-0.268,0.604-0.268l0,0l0.144,0.268l-0.259,0.147l0.708,1.487l0.402-0.181l0.185,0.412l0,0
						c0,0-0.058,0.104-0.853,0.434c-0.79,0.336-0.895,0.314-0.895,0.314l0,0l-0.184-0.412l0.428-0.198l-0.523-1.546l-0.287,0.104
						L268.309,36.956L268.309,36.956z"/>
					<path id="XMLID_723_" style="fill-rule:evenodd;clip-rule:evenodd;" d="M269.691,36.353c0,0,0.182-0.142,0.51-0.453
						c0.303-0.309,0.447-0.496,0.447-0.496l0,0l0.24,0.204l-0.203,0.253l1.213,1.059l0.327-0.34l0.31,0.34l0,0
						c0,0,0,0.099-0.613,0.72c-0.605,0.624-0.709,0.644-0.709,0.644l0,0l-0.324-0.334l0.324-0.331l-1.073-1.205l-0.225,0.166
						L269.691,36.353L269.691,36.353z"/>
					<path id="XMLID_722_" style="fill-rule:evenodd;clip-rule:evenodd;" d="M270.747,35.241c0,0,0.121-0.208,0.279-0.602
						c0.187-0.419,0.225-0.662,0.225-0.662l0,0l0.305,0.104l-0.085,0.309l1.527,0.517l0.184-0.408l0.405,0.168l0,0
						c0,0,0.021,0.103-0.302,0.905c-0.327,0.829-0.431,0.869-0.431,0.869l0,0l-0.406-0.166l0.185-0.436l-1.468-0.721l-0.139,0.27
						L270.747,35.241L270.747,35.241z"/>
					<path id="XMLID_721_" style="fill-rule:evenodd;clip-rule:evenodd;" d="M271.287,33.791c0,0,0.047-0.228,0.047-0.661
						c0-0.455-0.047-0.685-0.047-0.685l0,0l0.327-0.045l0.015,0.314l1.633-0.1v-0.456h0.44l0,0c0,0,0.065,0.083,0.065,0.949
						c0,0.897-0.065,0.974-0.065,0.974l0,0h-0.44v-0.456l-1.633-0.127l-0.015,0.311L271.287,33.791L271.287,33.791z"/>
					<path id="XMLID_720_" style="fill-rule:evenodd;clip-rule:evenodd;" d="M271.272,32.241c0,0-0.059-0.229-0.222-0.643
						c-0.181-0.418-0.302-0.598-0.302-0.598l0,0l0.302-0.164l0.14,0.29l1.443-0.75l-0.185-0.414l0.406-0.185l0,0
						c0,0,0.104,0.063,0.431,0.872c0.339,0.826,0.302,0.911,0.302,0.911l0,0l-0.405,0.18l-0.184-0.436l-1.527,0.543l0.104,0.295
						L271.272,32.241L271.272,32.241z"/>
					<path id="XMLID_719_" style="fill-rule:evenodd;clip-rule:evenodd;" d="M270.649,30.818c0,0-0.144-0.169-0.447-0.505
						c-0.305-0.309-0.491-0.453-0.491-0.453l0,0l0.204-0.25l0.225,0.205l1.073-1.237l-0.324-0.334l0.301-0.306l0,0
						c0,0,0.097,0,0.733,0.616c0.613,0.617,0.613,0.727,0.613,0.727l0,0l-0.31,0.329l-0.327-0.329l-1.213,1.095l0.203,0.232
						L270.649,30.818L270.649,30.818z"/>
					<path id="XMLID_718_" style="fill-rule:evenodd;clip-rule:evenodd;" d="M269.528,29.76c0,0-0.176-0.126-0.584-0.289
						c-0.41-0.19-0.634-0.231-0.634-0.231l0,0l0.104-0.311l0.287,0.083l0.506-1.556l-0.412-0.183l0.166-0.414l0,0
						c0,0,0.103-0.017,0.892,0.31c0.816,0.329,0.849,0.433,0.849,0.433l0,0l-0.161,0.42l-0.425-0.191l-0.711,1.49l0.285,0.151
						L269.528,29.76L269.528,29.76z"/>
					<path id="XMLID_717_" style="fill-rule:evenodd;clip-rule:evenodd;" d="M268.115,29.197c0,0-0.229-0.026-0.654-0.041
						c-0.449,0-0.668,0.041-0.668,0.041l0,0l-0.041-0.33l0.305-0.021l-0.099-1.636h-0.446v-0.455l0,0c0,0,0.081-0.059,0.932-0.059
						c0.867-0.023,0.955,0.059,0.955,0.059l0,0v0.43l-0.449,0.025l-0.118,1.636l0.32,0.021L268.115,29.197L268.115,29.197z"/>
					<path id="XMLID_716_" style="fill-rule:evenodd;clip-rule:evenodd;" d="M266.592,29.239c0,0-0.222,0.06-0.628,0.231
						c-0.406,0.181-0.589,0.307-0.589,0.307l0,0l-0.162-0.296l0.283-0.142l-0.727-1.488l-0.405,0.191l-0.165-0.416l0,0
						c0,0,0.043-0.105,0.831-0.44c0.812-0.344,0.899-0.303,0.899-0.303l0,0l0.176,0.416l-0.424,0.179l0.524,1.556l0.285-0.105
						L266.592,29.239L266.592,29.239z"/>
					<path id="XMLID_715_" style="fill-rule:evenodd;clip-rule:evenodd;" d="M265.213,29.877c0,0-0.182,0.148-0.484,0.456
						c-0.322,0.316-0.447,0.52-0.447,0.52l0,0l-0.263-0.228l0.198-0.226l-1.214-1.08l-0.301,0.314l-0.324-0.314l0,0
						c0,0,0.016-0.096,0.624-0.721c0.609-0.647,0.713-0.647,0.713-0.647l0,0l0.303,0.316l-0.303,0.331l1.054,1.241l0.246-0.206
						L265.213,29.877L265.213,29.877z"/>
				</g>
				<rect id="XMLID_713_" x="250.968" y="54.525" style="fill-rule:evenodd;clip-rule:evenodd;" width="127.983" height="2.443"/>
				<path id="XMLID_712_" style="fill-rule:evenodd;clip-rule:evenodd;" d="M364.158,28.643h-0.648l0,0
					c-0.16,0.477-0.239,0.528-0.608,0.528c-0.915,0-2.087-0.74-4.577-0.74c-3.809,0-6.387,2.049-6.387,5.055
					c0,1.527,0.569,2.887,1.987,4.067c2.637,2.199,8.94,3.77,8.94,7.139c0,2.116-1.888,3.484-4.72,3.484
					c-2.048,0-5.602-1.179-5.638-4.806l0,0h-0.709v5.284h0.709l0,0c0.202-0.502,0.482-0.752,0.89-0.752
					c0.793,0,2.876,1.043,5.366,1.043c3.676,0,6.672-2.513,6.672-5.575c0-1.297-0.402-2.521-2.046-3.886
					c-3.363-2.815-9.32-3.748-9.32-7.367c0-1.804,1.737-2.947,4.193-2.947c2.393,0,4.845,1.142,5.208,4.041l0,0h0.686V28.643
					L364.158,28.643z"/>
				<path id="XMLID_711_" style="fill-rule:evenodd;clip-rule:evenodd;" d="M298.187,32.675c0-2.382,0.665-3.127,2.537-3.127l0,0
					v-0.599h-8.005v0.599l0,0c1.903,0,2.533,0.641,2.533,3.127l0,0V44.92l0,0c0,2.529-0.712,3.152-2.533,3.152l0,0v0.582h8.005
					v-0.582l0,0c-1.872,0-2.537-0.724-2.537-3.152l0,0V32.675L298.187,32.675z"/>
				<path id="XMLID_710_" style="fill-rule:evenodd;clip-rule:evenodd;" d="M324.297,34.249l-0.021-4.597h-0.752l0,0
					c-0.084,0.08-0.248,0.188-0.589,0.188c-1.018,0-2.778-1.262-6.877-1.262c-6.765,0-11.65,4.428-11.65,10.557
					c0,5.87,4.742,10.119,11.328,10.119c3.832,0,6.228-1.203,8.29-0.912c0.041,0,1.118-4.515,1.143-4.575l0,0h-0.612l0,0
					c-2.209,3.828-5.376,4.702-7.945,4.702c-4.927,0-9.145-4.224-9.145-9.958c0-5.317,3.389-9.149,8.798-9.149
					c3.552,0,6.347,1.927,7.419,4.888l0,0H324.297L324.297,34.249z"/>
				<path id="XMLID_709_" style="fill-rule:evenodd;clip-rule:evenodd;" d="M344.299,36.335h-0.671l0,0
					c-0.302,1.677-0.889,1.911-2.412,1.911l0,0h-6.203V29.84h6.408l0,0c2.453,0,3.222,0.165,3.728,2.337l0,0h0.425v-3.31h-16.029
					v0.604l0,0c1.906,0,2.511,0.673,2.511,3.123l0,0v12.287l0,0c0,2.606-0.764,3.112-2.511,3.112l0,0v0.575h16.029l1.013-3.687
					h-0.665l0,0c-1.319,2.586-2.132,2.714-5.396,2.714l0,0h-3.886l0,0c-1.239,0-1.626-0.371-1.626-1.323l0,0v-7.057h5.512l0,0
					c2.295,0,2.637,0.209,3.104,1.884l0,0h0.671V36.335L344.299,36.335z"/>
				<path id="XMLID_708_" style="fill-rule:evenodd;clip-rule:evenodd;" d="M376.105,32.593c0-2.382,0.661-3.123,2.527-3.123l0,0
					v-0.604h-8.007v0.604l0,0c1.906,0,2.531,0.634,2.531,3.123l0,0v12.243l0,0c0,2.532-0.707,3.156-2.531,3.156l0,0v0.575h8.007
					v-0.575l0,0c-1.866,0-2.527-0.732-2.527-3.156l0,0V32.593L376.105,32.593z"/>
				<path id="XMLID_707_" style="fill-rule:evenodd;clip-rule:evenodd;" d="M292.531,17.69h0.79v3.104l0,0
					c0,0.328,0.019,0.582,0.059,0.729c0.044,0.144,0.103,0.27,0.21,0.37c0.162,0.186,0.361,0.329,0.584,0.413
					c0.222,0.104,0.486,0.141,0.771,0.141c0.487,0,0.871-0.121,1.176-0.349c0.306-0.24,0.446-0.554,0.446-0.976l0,0V17.69h0.79v3.48
					l0,0c0,0.595-0.226,1.076-0.67,1.447c-0.445,0.375-1.015,0.558-1.742,0.558c-0.424,0-0.815-0.06-1.155-0.205
					c-0.351-0.147-0.631-0.353-0.849-0.643c-0.162-0.165-0.265-0.354-0.331-0.561c-0.059-0.205-0.08-0.511-0.08-0.952l0,0V17.69
					L292.531,17.69z"/>
				<polygon id="XMLID_706_" style="fill-rule:evenodd;clip-rule:evenodd;" points="301.894,23.071 301.894,17.69 302.609,17.69 
					306.293,21.873 306.293,17.69 307.089,17.69 307.089,23.071 306.375,23.071 302.711,18.893 302.711,23.071 301.894,23.071 				
					"/>
				<polygon id="XMLID_705_" style="fill-rule:evenodd;clip-rule:evenodd;" points="311.927,23.071 311.927,17.69 312.722,17.69 
					312.722,23.071 311.927,23.071 				"/>
				<polygon id="XMLID_704_" style="fill-rule:evenodd;clip-rule:evenodd;" points="319.164,23.115 316.715,17.69 317.545,17.69 
					319.286,21.544 321.07,17.69 321.901,17.69 319.389,23.115 319.164,23.115 				"/>
				<polygon id="XMLID_703_" style="fill-rule:evenodd;clip-rule:evenodd;" points="325.997,23.071 325.997,17.69 329.36,17.69 
					329.36,18.377 326.783,18.377 326.783,20.007 329.299,20.007 329.299,20.715 326.783,20.715 326.783,22.389 329.442,22.389 
					329.442,23.071 325.997,23.071 				"/>
				<path id="XMLID_700_" style="fill-rule:evenodd;clip-rule:evenodd;" d="M334.106,23.071V17.69h1.634l0,0
					c0.572,0,1.014,0.122,1.32,0.396c0.305,0.25,0.466,0.601,0.466,1.069c0,0.36-0.079,0.648-0.263,0.878
					c-0.161,0.203-0.425,0.37-0.787,0.473c0.074,0.042,0.178,0.12,0.262,0.208c0.078,0.057,0.189,0.206,0.322,0.393l0,0l1.361,1.963
					h-0.974l-0.955-1.404l0,0c-0.302-0.413-0.524-0.713-0.711-0.813c-0.177-0.122-0.381-0.189-0.626-0.189l0,0h-0.242v2.407H334.106
					L334.106,23.071L334.106,23.071z M334.914,20.033h0.671l0,0c0.358,0,0.648-0.084,0.831-0.209
					c0.178-0.151,0.278-0.351,0.278-0.647c0-0.284-0.082-0.49-0.261-0.637c-0.178-0.126-0.467-0.186-0.849-0.186l0,0h-0.671V20.033
					L334.914,20.033z"/>
				<path id="XMLID_699_" style="fill-rule:evenodd;clip-rule:evenodd;" d="M342.306,22.657v-1.01l0,0
					c0.266,0.29,0.513,0.473,0.735,0.598c0.243,0.123,0.479,0.18,0.746,0.18c0.265,0,0.49-0.058,0.656-0.18
					c0.158-0.125,0.237-0.287,0.237-0.497c0-0.188-0.064-0.327-0.166-0.48c-0.096-0.12-0.357-0.314-0.768-0.554
					c-0.627-0.391-1.034-0.708-1.195-0.912c-0.162-0.235-0.246-0.475-0.246-0.783c0-0.419,0.165-0.751,0.465-1.022
					c0.31-0.266,0.713-0.409,1.203-0.409c0.202,0,0.427,0.038,0.627,0.101c0.222,0.042,0.424,0.145,0.65,0.272l0,0v0.868l0,0
					c-0.263-0.19-0.494-0.329-0.689-0.416c-0.204-0.078-0.43-0.12-0.63-0.12c-0.243,0-0.449,0.06-0.608,0.183
					c-0.165,0.104-0.244,0.268-0.244,0.463c0,0.262,0.325,0.592,0.992,0.991l0,0l0.128,0.063l0,0
					c0.524,0.331,0.888,0.615,1.051,0.845c0.158,0.244,0.242,0.554,0.242,0.91c0,0.413-0.161,0.762-0.468,1.032
					c-0.301,0.272-0.708,0.395-1.198,0.395c-0.307,0-0.564-0.037-0.805-0.123C342.772,22.97,342.534,22.846,342.306,22.657
					L342.306,22.657L342.306,22.657z"/>
				<polygon id="XMLID_698_" style="fill-rule:evenodd;clip-rule:evenodd;" points="349.912,23.071 349.912,17.69 350.698,17.69 
					350.698,23.071 349.912,23.071 				"/>
				<path id="XMLID_695_" style="fill-rule:evenodd;clip-rule:evenodd;" d="M357.594,18.414h-1.258v3.934h1.258l0,0
					c0.708,0,1.235-0.164,1.637-0.514c0.41-0.354,0.597-0.831,0.597-1.456c0-0.59-0.187-1.072-0.597-1.417
					C358.829,18.601,358.302,18.414,357.594,18.414L357.594,18.414L357.594,18.414L357.594,18.414z M357.594,17.69
					c0.43,0,0.771,0.042,1.077,0.103c0.302,0.085,0.56,0.205,0.822,0.353c0.369,0.25,0.676,0.578,0.881,0.95
					c0.199,0.4,0.298,0.834,0.298,1.28c0,0.478-0.099,0.892-0.298,1.29c-0.204,0.389-0.512,0.701-0.881,0.949
					c-0.237,0.164-0.52,0.271-0.822,0.353c-0.306,0.082-0.648,0.102-1.077,0.102l0,0h-2.043V17.69H357.594L357.594,17.69z"/>
				<path id="XMLID_692_" style="fill-rule:evenodd;clip-rule:evenodd;" d="M365.886,20.794h1.737l-0.869-1.941L365.886,20.794
					L365.886,20.794L365.886,20.794z M364.037,23.071l2.435-5.381h0.585l2.452,5.381h-0.826l-0.713-1.575h-2.389l-0.733,1.575
					H364.037L364.037,23.071z"/>
				<path id="XMLID_689_" style="fill-rule:evenodd;clip-rule:evenodd;" d="M375.735,18.414h-1.284v3.934h1.284l0,0
					c0.686,0,1.235-0.164,1.623-0.514c0.399-0.354,0.601-0.831,0.601-1.456c0-0.59-0.202-1.072-0.601-1.417
					C376.97,18.601,376.421,18.414,375.735,18.414L375.735,18.414L375.735,18.414L375.735,18.414z M375.735,17.69
					c0.401,0,0.771,0.042,1.055,0.103c0.296,0.085,0.58,0.205,0.826,0.353c0.386,0.25,0.668,0.578,0.871,0.95
					c0.228,0.4,0.327,0.834,0.327,1.28c0,0.478-0.099,0.892-0.327,1.29c-0.203,0.389-0.486,0.701-0.871,0.949
					c-0.246,0.164-0.53,0.271-0.81,0.353c-0.301,0.082-0.671,0.102-1.072,0.102l0,0h-2.066V17.69H375.735L375.735,17.69z"/>
			</g>
		</g>
	</g>
</g>
</svg>
