<?xml version="1.0" encoding="utf-8"?>
<!-- Generator: Adobe Illustrator 16.0.0, SVG Export Plug-In . SVG Version: 6.00 Build 0)  -->
<!DOCTYPE svg PUBLIC "-//W3C//DTD SVG 1.1//EN" "http://www.w3.org/Graphics/SVG/1.1/DTD/svg11.dtd">
<svg version="1.1" id="Layer_1" xmlns="http://www.w3.org/2000/svg" xmlns:xlink="http://www.w3.org/1999/xlink" x="0px" y="0px"
	 width="378.785px" height="32.751px" viewBox="0 0 378.785 32.751" enable-background="new 0 0 378.785 32.751"
	 xml:space="preserve">
<g>
	<g>
		<path fill="#5B243E" d="M165.277,23.542l-0.019-0.261c-0.013-0.26-0.111-0.39-0.297-0.39c-0.1,0-0.279,0.068-0.539,0.204
			c-0.806,0.446-1.616,0.67-2.434,0.67c-1.561,0-2.84-0.539-3.837-1.617c-0.997-1.077-1.495-2.561-1.495-4.449
			s0.492-3.375,1.477-4.459c0.985-1.083,2.27-1.625,3.855-1.625c0.805,0,1.609,0.204,2.415,0.613
			c0.26,0.137,0.446,0.205,0.558,0.205c0.186,0,0.284-0.13,0.297-0.39l0.019-0.316h0.354v3.213h-0.335
			c-0.111-0.953-0.468-1.656-1.068-2.108c-0.601-0.452-1.347-0.678-2.238-0.678c-1.127,0-2.034,0.496-2.722,1.486
			c-0.688,0.991-1.031,2.347-1.031,4.069c0,1.721,0.347,3.071,1.04,4.049c0.693,0.979,1.598,1.469,2.713,1.469
			c0.892,0,1.638-0.227,2.238-0.679s0.957-1.155,1.068-2.108h0.335v3.103H165.277z"/>
		<path fill="#5B243E" d="M170.451,22.148c-0.984-1.077-1.477-2.563-1.477-4.459c0-1.895,0.492-3.381,1.477-4.459
			c0.985-1.077,2.267-1.616,3.846-1.616s2.861,0.539,3.846,1.616c0.985,1.078,1.478,2.564,1.478,4.459
			c0,1.896-0.492,3.382-1.478,4.459c-0.984,1.078-2.267,1.617-3.846,1.617S171.437,23.227,170.451,22.148z M171.622,13.603
			c-0.713,1.003-1.068,2.366-1.068,4.087c0,1.723,0.355,3.084,1.068,4.088c0.712,1.003,1.601,1.504,2.666,1.504
			c1.064,0,1.957-0.501,2.675-1.504c0.719-1.004,1.078-2.365,1.078-4.088c0-1.721-0.359-3.084-1.078-4.087
			c-0.718-1.003-1.61-1.505-2.675-1.505C173.223,12.098,172.334,12.599,171.622,13.603z"/>
		<path fill="#5B243E" d="M182.778,23.542v-0.335h0.873c0.173,0,0.26-0.086,0.26-0.26V12.395c0-0.149-0.087-0.223-0.26-0.223h-0.873
			v-0.334h3.79v0.334h-0.873c-0.174,0-0.261,0.074-0.261,0.223v10.626h3.697c0.322,0,0.495-0.136,0.521-0.408l0.278-2.174h0.428
			v0.873c0,1.09,0.056,1.889,0.167,2.396c-0.396-0.111-1.084-0.167-2.062-0.167H182.778z"/>
		<path fill="#5B243E" d="M193.033,23.542v-0.335h0.873c0.173,0,0.26-0.086,0.26-0.26V12.395c0-0.149-0.087-0.223-0.26-0.223h-0.873
			v-0.334h5.89c0.978,0,1.665-0.056,2.062-0.167c-0.111,0.508-0.167,1.214-0.167,2.118v0.874h-0.428l-0.278-1.896
			c-0.024-0.272-0.198-0.409-0.521-0.409h-3.901v5.072h3.734c0.148,0,0.235-0.086,0.261-0.26l0.093-1.152h0.334v3.344h-0.334
			l-0.093-1.151c-0.025-0.173-0.112-0.261-0.261-0.261h-3.734v5.072h4.162c0.321,0,0.495-0.136,0.52-0.408l0.279-2.174h0.427v0.873
			c0,1.09,0.056,1.889,0.168,2.396c-0.396-0.111-1.084-0.167-2.062-0.167H193.033z"/>
		<path fill="#5B243E" d="M213.116,23.542l-0.019-0.261c-0.013-0.26-0.111-0.39-0.297-0.39c-0.1,0-0.279,0.068-0.539,0.204
			c-0.806,0.446-1.616,0.67-2.434,0.67c-1.561,0-2.84-0.539-3.837-1.617c-0.997-1.077-1.495-2.561-1.495-4.449
			s0.492-3.375,1.477-4.459c0.985-1.083,2.27-1.625,3.855-1.625c0.805,0,1.609,0.204,2.415,0.613
			c0.26,0.137,0.446,0.205,0.558,0.205c0.186,0,0.284-0.13,0.297-0.39l0.019-0.316h0.354v3.213h-0.335
			c-0.111-0.953-0.468-1.656-1.068-2.108c-0.601-0.452-1.347-0.678-2.238-0.678c-1.127,0-2.034,0.496-2.722,1.486
			c-0.688,0.991-1.031,2.347-1.031,4.069c0,1.721,0.347,3.071,1.04,4.049c0.693,0.979,1.598,1.469,2.713,1.469
			c0.892,0,1.638-0.227,2.238-0.679s0.957-1.155,1.068-2.108h0.335v3.103H213.116z"/>
		<path fill="#5B243E" d="M225.434,23.542l-0.019-0.261c-0.013-0.26-0.111-0.39-0.297-0.39c-0.1,0-0.279,0.068-0.539,0.204
			c-0.806,0.446-1.616,0.67-2.434,0.67c-1.561,0-2.84-0.539-3.837-1.617c-0.997-1.077-1.495-2.561-1.495-4.449
			s0.492-3.375,1.477-4.459c0.985-1.083,2.27-1.625,3.855-1.625c0.805,0,1.609,0.204,2.415,0.613
			c0.26,0.137,0.446,0.205,0.558,0.205c0.186,0,0.284-0.13,0.297-0.39l0.019-0.316h0.354v3.213h-0.335
			c-0.111-0.953-0.468-1.656-1.068-2.108c-0.601-0.452-1.347-0.678-2.238-0.678c-1.127,0-2.034,0.496-2.722,1.486
			c-0.688,0.991-1.031,2.347-1.031,4.069c0,1.721,0.347,3.071,1.04,4.049c0.693,0.979,1.598,1.469,2.713,1.469
			c0.892,0,1.638-0.227,2.238-0.679s0.957-1.155,1.068-2.108h0.335v3.103H225.434z"/>
		<path fill="#5B243E" d="M230.264,22.947V12.395c0-0.149-0.087-0.223-0.26-0.223h-0.873v-0.334h3.79v0.334h-0.873
			c-0.174,0-0.261,0.074-0.261,0.223v10.552c0,0.174,0.087,0.26,0.261,0.26h0.873v0.335h-3.79v-0.335h0.873
			C230.177,23.207,230.264,23.121,230.264,22.947z"/>
		<path fill="#5B243E" d="M237.556,22.148c-0.984-1.077-1.477-2.563-1.477-4.459c0-1.895,0.492-3.381,1.477-4.459
			c0.985-1.077,2.267-1.616,3.846-1.616s2.861,0.539,3.846,1.616c0.985,1.078,1.478,2.564,1.478,4.459
			c0,1.896-0.492,3.382-1.478,4.459c-0.984,1.078-2.267,1.617-3.846,1.617S238.541,23.227,237.556,22.148z M238.727,13.603
			c-0.713,1.003-1.068,2.366-1.068,4.087c0,1.723,0.355,3.084,1.068,4.088c0.712,1.003,1.601,1.504,2.666,1.504
			c1.064,0,1.957-0.501,2.675-1.504c0.719-1.004,1.078-2.365,1.078-4.088c0-1.721-0.359-3.084-1.078-4.087
			c-0.718-1.003-1.61-1.505-2.675-1.505C240.327,12.098,239.438,12.599,238.727,13.603z M240.185,10.946l1.319-2.49
			c0.223-0.421,0.489-0.631,0.799-0.631c0.173,0,0.328,0.071,0.465,0.213c0.136,0.143,0.204,0.356,0.204,0.641l-2.489,2.49
			L240.185,10.946z"/>
		<path fill="#5B243E" d="M258.633,23.542l-6.985-10.366v9.771c0,0.174,0.087,0.26,0.261,0.26h0.873v0.335h-2.898v-0.335h0.873
			c0.173,0,0.26-0.086,0.26-0.26V12.395c0-0.149-0.087-0.223-0.26-0.223h-0.873v-0.334h2.73l5.982,8.843v-8.249
			c0-0.173-0.087-0.26-0.26-0.26h-0.873v-0.334h2.898v0.334h-0.874c-0.173,0-0.26,0.074-0.26,0.223v11.147H258.633z"/>
		<path fill="#5B243E" d="M271.006,18.948h-0.07c-0.288,0.571-0.622,0.856-1.003,0.856c-0.218,0-0.4-0.096-0.547-0.289
			c-0.146-0.192-0.22-0.43-0.22-0.71c0-0.281,0.037-0.542,0.112-0.784c0.074-0.241,0.179-0.468,0.313-0.68
			c0.134-0.211,0.313-0.383,0.536-0.515c0.223-0.133,0.45-0.198,0.683-0.198c0.446,0,0.762,0.194,0.947,0.584l-0.098,0.126
			c-0.218-0.362-0.489-0.544-0.814-0.544c-0.2,0-0.383,0.072-0.547,0.217c-0.165,0.145-0.294,0.325-0.387,0.543
			c-0.19,0.446-0.286,0.867-0.286,1.262c0,0.26,0.043,0.455,0.129,0.585s0.201,0.194,0.345,0.194c0.2,0,0.404-0.168,0.613-0.504
			c0.209-0.338,0.395-0.819,0.558-1.446L271.006,18.948z M271.312,19.381c0,0.152,0.058,0.229,0.174,0.229
			c0.088,0,0.184-0.06,0.286-0.178c0.102-0.118,0.189-0.286,0.265-0.505l0.111,0.027c-0.2,0.566-0.46,0.85-0.78,0.85
			c-0.288,0-0.433-0.182-0.433-0.547c0-0.363,0.305-1.649,0.913-3.855l-0.446,0.035l-0.007-0.119c0.32-0.041,0.62-0.1,0.899-0.174
			l0.097,0.069c-0.194,0.571-0.424,1.347-0.686,2.323C271.443,18.516,271.312,19.129,271.312,19.381z"/>
		<path fill="#5B243E" d="M275.58,16.807c0.123,0.117,0.185,0.287,0.185,0.508s-0.086,0.412-0.258,0.574
			c-0.293,0.279-0.727,0.419-1.303,0.419c-0.172,0-0.32-0.015-0.446-0.042v-0.133c0.163,0.023,0.298,0.035,0.404,0.035
			c0.386,0,0.684-0.098,0.896-0.293c0.211-0.195,0.316-0.408,0.316-0.641c0-0.125-0.033-0.23-0.101-0.313s-0.179-0.126-0.334-0.126
			c-0.156,0-0.314,0.072-0.475,0.217s-0.286,0.322-0.379,0.536c-0.187,0.45-0.279,0.841-0.279,1.171c0,0.613,0.186,0.92,0.558,0.92
			c0.46,0,0.797-0.252,1.01-0.753l0.112,0.028c-0.112,0.283-0.273,0.502-0.484,0.658c-0.212,0.155-0.449,0.232-0.715,0.232
			c-0.265,0-0.487-0.098-0.668-0.292c-0.182-0.195-0.272-0.458-0.272-0.787c0-0.33,0.063-0.649,0.188-0.958s0.32-0.576,0.585-0.801
			c0.265-0.226,0.566-0.338,0.906-0.338C275.272,16.629,275.457,16.688,275.58,16.807z"/>
		<path fill="#5B243E" d="M288.625,12.153c-1.127,0-2.034,0.496-2.722,1.486c-0.688,0.991-1.031,2.347-1.031,4.069
			c0,1.721,0.347,3.071,1.04,4.049c0.693,0.979,1.563,1.469,2.61,1.469s1.777-0.27,2.192-0.809s0.622-1.328,0.622-2.369v-0.742
			c0-0.148-0.086-0.224-0.26-0.224h-1.245v-0.335h3.79v0.335h-0.501c-0.174,0-0.261,0.075-0.261,0.224v0.668
			c0,1.104-0.396,2.01-1.188,2.723c-0.793,0.712-1.809,1.068-3.047,1.068c-1.561,0-2.84-0.539-3.837-1.617
			c-0.997-1.077-1.495-2.561-1.495-4.449s0.492-3.375,1.477-4.459c0.985-1.083,2.27-1.625,3.855-1.625
			c0.805,0,1.609,0.204,2.415,0.613c0.26,0.137,0.446,0.205,0.558,0.205c0.186,0,0.284-0.13,0.297-0.39l0.019-0.316h0.354v3.213
			h-0.335c-0.111-0.953-0.468-1.656-1.068-2.108C290.263,12.379,289.517,12.153,288.625,12.153z"/>
		<path fill="#5B243E" d="M304.454,23.152c0.186,0,0.337-0.078,0.455-0.232c0.117-0.155,0.177-0.341,0.177-0.558
			s-0.019-0.418-0.056-0.604l0.353-0.055c0.05,0.186,0.074,0.39,0.074,0.613c0,0.445-0.133,0.799-0.399,1.059
			s-0.61,0.391-1.031,0.391c-1.053,0-1.579-0.639-1.579-1.914s-0.161-2.214-0.483-2.814c-0.321-0.602-0.979-0.901-1.969-0.901
			h-1.208v4.812c0,0.174,0.087,0.26,0.261,0.26h1.244v0.335h-4.161v-0.335h0.873c0.173,0,0.26-0.086,0.26-0.26V12.395
			c0-0.149-0.087-0.223-0.26-0.223h-0.873v-0.334h4.626c1.04,0,1.926,0.285,2.656,0.855c0.731,0.569,1.097,1.331,1.097,2.285
			c0,0.769-0.239,1.415-0.716,1.941s-1.105,0.889-1.886,1.087c0.88,0.297,1.438,0.83,1.673,1.598
			c0.186,0.631,0.278,1.381,0.278,2.248S304.058,23.152,304.454,23.152z M300.664,12.358h-1.877v5.239h1.877
			c0.743,0,1.321-0.26,1.737-0.78c0.414-0.52,0.622-1.133,0.622-1.839s-0.208-1.319-0.622-1.839
			C301.985,12.618,301.407,12.358,300.664,12.358z"/>
		<path fill="#5B243E" d="M317.886,23.542h-3.809v-0.335h1.208l-1.301-3.585h-4.087l-1.301,3.585h1.207v0.335h-2.805v-0.335h0.688
			c0.173,0,0.291-0.086,0.353-0.26l4.087-11.11h0.632l4.088,11.11c0.062,0.174,0.179,0.26,0.353,0.26h0.688V23.542z M311.959,14.029
			l-1.857,5.072h3.697L311.959,14.029z"/>
		<path fill="#5B243E" d="M320.208,23.542v-0.335h0.873c0.173,0,0.26-0.074,0.26-0.223V12.395c0-0.149-0.087-0.223-0.26-0.223
			h-0.873v-0.334h4.348c0.929,0,1.725,0.254,2.387,0.762c0.663,0.508,0.994,1.165,0.994,1.969c0,0.619-0.164,1.162-0.492,1.626
			s-0.765,0.814-1.31,1.05c0.78,0.174,1.414,0.526,1.904,1.059c0.488,0.533,0.733,1.242,0.733,2.127
			c0,0.887-0.365,1.626-1.096,2.221c-0.731,0.594-1.616,0.892-2.657,0.892H320.208z M324.165,12.358h-1.301v4.755h1.412
			c0.73,0,1.275-0.247,1.635-0.742c0.359-0.496,0.539-1.074,0.539-1.737s-0.186-1.208-0.558-1.635
			C325.521,12.571,324.945,12.358,324.165,12.358z M324.927,17.578h-2.062v5.443h2.062c0.743,0,1.322-0.271,1.737-0.817
			c0.415-0.544,0.622-1.183,0.622-1.913s-0.207-1.365-0.622-1.904S325.67,17.578,324.927,17.578z"/>
		<path fill="#5B243E" d="M341.61,23.542h-3.809v-0.335h1.208l-1.301-3.585h-4.087l-1.301,3.585h1.207v0.335h-2.805v-0.335h0.688
			c0.173,0,0.291-0.086,0.353-0.26l4.087-11.11h0.632l4.088,11.11c0.062,0.174,0.179,0.26,0.353,0.26h0.688V23.542z M335.684,14.029
			l-1.857,5.072h3.697L335.684,14.029z"/>
		<path fill="#5B243E" d="M343.933,12.172v-0.334h4.719c1.573,0,2.854,0.521,3.846,1.561c0.991,1.04,1.486,2.471,1.486,4.291
			s-0.495,3.252-1.486,4.292s-2.272,1.561-3.846,1.561h-4.719v-0.335h0.873c0.173,0,0.26-0.074,0.26-0.223V12.395
			c0-0.149-0.087-0.223-0.26-0.223H343.933z M348.651,12.358h-2.062v10.664h2.062c1.065,0,1.957-0.477,2.676-1.43
			c0.718-0.954,1.077-2.254,1.077-3.902c0-1.646-0.359-2.947-1.077-3.901C350.608,12.834,349.717,12.358,348.651,12.358z"/>
		<path fill="#5B243E" d="M358.618,22.148c-0.984-1.077-1.477-2.563-1.477-4.459c0-1.895,0.492-3.381,1.477-4.459
			c0.985-1.077,2.267-1.616,3.846-1.616s2.861,0.539,3.846,1.616c0.985,1.078,1.478,2.564,1.478,4.459
			c0,1.896-0.492,3.382-1.478,4.459c-0.984,1.078-2.267,1.617-3.846,1.617S359.604,23.227,358.618,22.148z M359.789,13.603
			c-0.713,1.003-1.068,2.366-1.068,4.087c0,1.723,0.355,3.084,1.068,4.088c0.712,1.003,1.601,1.504,2.666,1.504
			c1.064,0,1.957-0.501,2.675-1.504c0.719-1.004,1.078-2.365,1.078-4.088c0-1.721-0.359-3.084-1.078-4.087
			c-0.718-1.003-1.61-1.505-2.675-1.505C361.39,12.098,360.501,12.599,359.789,13.603z"/>
		<path fill="#5B243E" d="M374.902,23.766c-0.817,0-1.635-0.224-2.452-0.67c-0.272-0.136-0.459-0.204-0.558-0.204
			c-0.186,0-0.285,0.13-0.297,0.39l-0.019,0.261h-0.354v-3.103h0.335c0.111,0.953,0.467,1.656,1.068,2.108
			c0.601,0.452,1.312,0.679,2.136,0.679c0.824,0,1.449-0.223,1.877-0.67c0.427-0.445,0.641-0.972,0.641-1.578
			c0-0.967-0.558-1.697-1.672-2.192l-2.211-0.985c-0.669-0.297-1.17-0.702-1.505-1.217c-0.334-0.514-0.502-1.068-0.502-1.662
			c0-0.904,0.304-1.682,0.911-2.332c0.606-0.65,1.479-0.975,2.619-0.975c0.669,0,1.356,0.223,2.062,0.668
			c0.235,0.137,0.396,0.205,0.482,0.205c0.161,0,0.248-0.13,0.261-0.39l0.019-0.372h0.353v3.213h-0.334
			c-0.1-0.953-0.406-1.656-0.92-2.108c-0.514-0.452-1.14-0.678-1.876-0.678c-0.737,0-1.308,0.202-1.71,0.604
			c-0.402,0.403-0.604,0.861-0.604,1.375c0,0.515,0.14,0.976,0.418,1.384c0.279,0.409,0.69,0.731,1.235,0.967l2.229,0.984
			c0.743,0.334,1.304,0.771,1.682,1.311c0.378,0.538,0.566,1.117,0.566,1.736c0,0.879-0.353,1.641-1.059,2.285
			S376.079,23.766,374.902,23.766z"/>
	</g>
	<g>
		<path fill-rule="evenodd" clip-rule="evenodd" fill="#414042" d="M14.799,5.367c0,0-0.483-0.064-1.422-0.064
			c-0.939-0.015-1.423,0.064-1.423,0.064l-0.049-0.691l0.646-0.067l-0.227-3.502h-0.951V0.148c0,0,0.16-0.148,2.003-0.148
			c1.847,0,2.007,0.148,2.007,0.148v0.958h-0.953l-0.227,3.502l0.644,0.067L14.799,5.367z"/>
		<path fill-rule="evenodd" clip-rule="evenodd" fill="#414042" d="M11.564,5.467c0,0-0.47,0.133-1.323,0.48
			C9.368,6.31,8.944,6.574,8.944,6.574L8.639,5.947l0.563-0.299L7.685,2.494L6.794,2.875L6.438,1.983c0,0,0.112-0.199,1.812-0.927
			c1.698-0.71,1.909-0.645,1.909-0.645l0.355,0.895L9.626,1.668l1.115,3.338l0.613-0.215L11.564,5.467z"/>
		<path fill-rule="evenodd" clip-rule="evenodd" fill="#414042" d="M8.622,6.819c0,0-0.388,0.299-1.05,0.96
			C6.909,8.457,6.616,8.87,6.616,8.87L6.099,8.408l0.42-0.512L3.933,5.582L3.25,6.277L2.589,5.6c0,0,0.016-0.232,1.327-1.551
			c1.292-1.339,1.52-1.355,1.52-1.355l0.663,0.678l-0.68,0.693l2.266,2.644l0.503-0.431L8.622,6.819z"/>
		<path fill-rule="evenodd" clip-rule="evenodd" fill="#414042" d="M6.421,9.201c0,0-0.256,0.428-0.613,1.305
			c-0.372,0.875-0.486,1.368-0.486,1.368l-0.646-0.212l0.194-0.648l-3.251-1.12l-0.372,0.908l-0.875-0.364
			c0,0-0.063-0.213,0.648-1.965c0.713-1.732,0.89-1.834,0.89-1.834l0.875,0.366L2.427,7.91l3.072,1.555L5.808,8.87L6.421,9.201z"/>
		<path fill-rule="evenodd" clip-rule="evenodd" fill="#414042" d="M5.257,12.257c0,0-0.064,0.494-0.08,1.451
			c0,0.958,0.08,1.455,0.08,1.455l-0.678,0.048l-0.065-0.658L1.088,14.78v0.975H0.146c0,0-0.146-0.165-0.146-2.047
			s0.146-2.062,0.146-2.062h0.941v0.991l3.426,0.23l0.065-0.662L5.257,12.257z"/>
		<path fill-rule="evenodd" clip-rule="evenodd" fill="#414042" d="M5.338,15.541c0,0,0.112,0.48,0.47,1.34
			c0.34,0.893,0.613,1.32,0.613,1.32l-0.613,0.312l-0.309-0.578l-3.072,1.554l0.357,0.892l-0.875,0.381c0,0-0.177-0.117-0.89-1.852
			c-0.712-1.731-0.646-1.947-0.646-1.947l0.873-0.365l0.372,0.91l3.253-1.123l-0.196-0.628L5.338,15.541z"/>
		<path fill-rule="evenodd" clip-rule="evenodd" fill="#414042" d="M6.632,18.531c0,0,0.292,0.396,0.94,1.088
			c0.663,0.678,1.066,0.959,1.066,0.959l-0.453,0.545l-0.501-0.426l-2.266,2.641l0.68,0.692l-0.663,0.677
			c0,0-0.228-0.016-1.52-1.354c-1.312-1.338-1.327-1.555-1.327-1.555l0.661-0.676l0.681,0.693l2.588-2.311l-0.42-0.514L6.632,18.531
			z"/>
		<path fill-rule="evenodd" clip-rule="evenodd" fill="#414042" d="M8.961,20.824c0,0,0.407,0.25,1.264,0.613
			c0.87,0.379,1.356,0.495,1.356,0.495l-0.227,0.661l-0.615-0.196l-1.098,3.318l0.889,0.38l-0.371,0.891c0,0-0.213,0.068-1.909-0.66
			c-1.699-0.711-1.795-0.908-1.795-0.908l0.354-0.892l0.89,0.381l1.521-3.156l-0.581-0.313L8.961,20.824z"/>
		<path fill-rule="evenodd" clip-rule="evenodd" fill="#414042" d="M11.969,22.016c0,0,0.469,0.064,1.408,0.082
			c0.938,0.018,1.422-0.082,1.422-0.082l0.067,0.711l-0.662,0.049l0.227,3.5h0.968v0.977c0,0-0.175,0.132-2.021,0.132
			c-1.843,0-2.003-0.132-2.003-0.132v-0.977h0.951l0.227-3.5l-0.646-0.049L11.969,22.016z"/>
		<path fill-rule="evenodd" clip-rule="evenodd" fill="#414042" d="M15.204,21.951c0,0,0.469-0.117,1.342-0.481
			c0.876-0.364,1.279-0.628,1.279-0.628l0.326,0.628l-0.586,0.298l1.522,3.155l0.889-0.381l0.355,0.893c0,0-0.098,0.198-1.81,0.925
			c-1.698,0.711-1.909,0.644-1.909,0.644l-0.355-0.893l0.888-0.362l-1.099-3.335l-0.633,0.214L15.204,21.951z"/>
		<path fill-rule="evenodd" clip-rule="evenodd" fill="#414042" d="M18.181,20.612c0,0,0.391-0.298,1.053-0.956
			c0.662-0.68,0.952-1.091,0.952-1.091l0.518,0.461l-0.42,0.514l2.589,2.312l0.68-0.695l0.664,0.678c0,0-0.019,0.231-1.327,1.553
			c-1.294,1.338-1.521,1.354-1.521,1.354l-0.664-0.678l0.681-0.692l-2.264-2.643l-0.502,0.428L18.181,20.612z"/>
		<path fill-rule="evenodd" clip-rule="evenodd" fill="#414042" d="M20.415,18.217c0,0,0.242-0.431,0.614-1.303
			c0.371-0.861,0.467-1.355,0.467-1.355l0.665,0.213l-0.194,0.631l3.25,1.122l0.37-0.909l0.859,0.363c0,0,0.066,0.215-0.63,1.949
			c-0.712,1.751-0.907,1.85-0.907,1.85l-0.874-0.365l0.373-0.906l-3.071-1.553l-0.308,0.597L20.415,18.217z"/>
		<path fill-rule="evenodd" clip-rule="evenodd" fill="#414042" d="M21.579,15.146c0,0,0.062-0.498,0.08-1.455
			c0-0.957-0.08-1.451-0.08-1.451l0.678-0.053l0.066,0.663l3.426-0.231v-0.974h0.94c0,0,0.146,0.164,0.146,2.046
			c0,1.884-0.146,2.049-0.146,2.049h-0.94v-0.975l-3.426-0.232l-0.066,0.662L21.579,15.146z"/>
		<path fill-rule="evenodd" clip-rule="evenodd" fill="#414042" d="M21.496,11.826c0,0-0.129-0.479-0.467-1.355
			c-0.355-0.893-0.614-1.322-0.614-1.322l0.614-0.311l0.289,0.594l3.09-1.553l-0.373-0.91l0.874-0.378c0,0,0.195,0.117,0.891,1.849
			c0.713,1.734,0.646,1.95,0.646,1.95l-0.873,0.362l-0.371-0.906l-3.25,1.137l0.19,0.627L21.496,11.826z"/>
		<path fill-rule="evenodd" clip-rule="evenodd" fill="#414042" d="M20.154,8.82c0,0-0.291-0.396-0.939-1.09
			c-0.663-0.678-1.05-0.959-1.05-0.959l0.438-0.543l0.5,0.428l2.265-2.643L20.688,3.32l0.663-0.678c0,0,0.228,0.017,1.521,1.355
			c1.31,1.338,1.325,1.553,1.325,1.553l-0.662,0.678l-0.681-0.695l-2.586,2.312l0.42,0.513L20.154,8.82z"/>
		<path fill-rule="evenodd" clip-rule="evenodd" fill="#414042" d="M17.81,6.542c0,0-0.42-0.249-1.278-0.627
			c-0.858-0.382-1.342-0.479-1.342-0.479l0.209-0.66l0.631,0.195l1.102-3.318l-0.893-0.381l0.356-0.891c0,0,0.212-0.066,1.91,0.66
			c1.715,0.711,1.812,0.908,1.812,0.908l-0.356,0.893l-0.89-0.381l-1.521,3.156l0.566,0.298L17.81,6.542z"/>
		<path fill-rule="evenodd" clip-rule="evenodd" fill="#414042" d="M9.739,10.172c0,0-0.195,0.218-0.518,0.714
			c-0.326,0.478-0.438,0.76-0.438,0.76l-0.372-0.218l0.196-0.346l-1.829-1.074l-0.323,0.498L5.97,10.172c0,0,0-0.129,0.613-1.088
			c0.633-0.957,0.76-0.99,0.76-0.99l0.472,0.331L7.489,8.919l1.664,1.306l0.262-0.316L9.739,10.172z"/>
		<path fill-rule="evenodd" clip-rule="evenodd" fill="#414042" d="M8.686,11.874c0,0-0.096,0.282-0.21,0.86
			c-0.112,0.579-0.112,0.873-0.112,0.873l-0.42-0.049l0.031-0.396l-2.071-0.279l-0.111,0.596l-0.566-0.116
			c0,0-0.065-0.134,0.146-1.255C5.597,10.982,5.694,10.9,5.694,10.9L6.261,11l-0.113,0.597l2.038,0.56l0.098-0.397L8.686,11.874z"/>
		<path fill-rule="evenodd" clip-rule="evenodd" fill="#414042" d="M8.363,13.856c0,0,0.017,0.298,0.13,0.875
			c0.097,0.58,0.209,0.86,0.209,0.86l-0.403,0.116l-0.113-0.38l-2.021,0.545l0.114,0.578l-0.57,0.114c0,0-0.094-0.083-0.322-1.188
			c-0.227-1.14-0.161-1.256-0.161-1.256l0.566-0.115l0.111,0.596l2.089-0.282l-0.049-0.413L8.363,13.856z"/>
		<path fill-rule="evenodd" clip-rule="evenodd" fill="#414042" d="M8.8,15.822c0,0,0.13,0.266,0.437,0.743
			c0.324,0.479,0.534,0.712,0.534,0.712l-0.339,0.264l-0.244-0.314l-1.666,1.305l0.323,0.495l-0.471,0.331
			c0,0-0.128-0.033-0.758-0.992c-0.631-0.957-0.615-1.088-0.615-1.088l0.484-0.332l0.326,0.496l1.811-1.057l-0.195-0.363L8.8,15.822
			z"/>
		<path fill-rule="evenodd" clip-rule="evenodd" fill="#414042" d="M9.931,17.439c0,0,0.229,0.2,0.697,0.529
			c0.467,0.33,0.746,0.447,0.746,0.447l-0.195,0.379l-0.356-0.197l-1.052,1.865l0.5,0.331l-0.322,0.493c0,0-0.131,0.018-1.067-0.627
			c-0.938-0.643-0.985-0.775-0.985-0.775l0.321-0.48l0.487,0.332l1.275-1.7l-0.305-0.263L9.931,17.439z"/>
		<path fill-rule="evenodd" clip-rule="evenodd" fill="#414042" d="M11.598,18.514c0,0,0.276,0.101,0.842,0.217
			c0.55,0.129,0.856,0.129,0.856,0.129l-0.049,0.431l-0.404-0.049l-0.259,2.132l0.567,0.115l-0.113,0.576
			c0,0-0.112,0.068-1.213-0.166c-1.115-0.213-1.197-0.328-1.197-0.328l0.113-0.578l0.581,0.113l0.535-2.062l-0.373-0.115
			L11.598,18.514z"/>
		<path fill-rule="evenodd" clip-rule="evenodd" fill="#414042" d="M13.538,18.859c0,0,0.293-0.016,0.857-0.113
			c0.566-0.115,0.843-0.232,0.843-0.232l0.111,0.414l-0.388,0.115l0.549,2.08l0.584-0.113l0.114,0.561c0,0-0.098,0.115-1.198,0.328
			c-1.1,0.234-1.215,0.166-1.215,0.166l-0.109-0.576l0.563-0.115l-0.274-2.132l-0.387,0.049L13.538,18.859z"/>
		<path fill-rule="evenodd" clip-rule="evenodd" fill="#414042" d="M15.465,18.432c0,0,0.259-0.131,0.744-0.445
			c0.483-0.33,0.693-0.547,0.693-0.547l0.259,0.35l-0.306,0.246l1.278,1.701l0.484-0.332l0.322,0.48c0,0-0.033,0.133-0.97,0.775
			c-0.938,0.645-1.068,0.627-1.068,0.627l-0.322-0.493l0.485-0.331l-1.052-1.849l-0.356,0.198L15.465,18.432z"/>
		<path fill-rule="evenodd" clip-rule="evenodd" fill="#414042" d="M17.082,17.275c0,0,0.194-0.23,0.518-0.71
			c0.323-0.464,0.437-0.743,0.437-0.743l0.371,0.199l-0.193,0.363l1.826,1.055l0.326-0.494l0.483,0.314c0,0,0,0.148-0.615,1.09
			c-0.629,0.957-0.761,1.007-0.761,1.007l-0.469-0.33l0.324-0.495l-1.666-1.305l-0.258,0.314L17.082,17.275z"/>
		<path fill-rule="evenodd" clip-rule="evenodd" fill="#414042" d="M18.151,15.59c0,0,0.097-0.297,0.209-0.858
			c0.113-0.577,0.127-0.89,0.127-0.89l0.405,0.049l-0.032,0.412l2.087,0.281l0.112-0.594l0.568,0.115c0,0,0.047,0.113-0.163,1.256
			c-0.228,1.105-0.323,1.189-0.323,1.189l-0.565-0.117l0.112-0.562l-2.02-0.56l-0.117,0.396L18.151,15.59z"/>
		<path fill-rule="evenodd" clip-rule="evenodd" fill="#414042" d="M18.487,13.592c0,0-0.014-0.297-0.127-0.874
			c-0.098-0.579-0.209-0.859-0.209-0.859l0.4-0.116l0.117,0.381l2.02-0.544l-0.112-0.597l0.565-0.114c0,0,0.096,0.081,0.323,1.206
			c0.224,1.139,0.163,1.254,0.163,1.254l-0.568,0.115l-0.112-0.593l-2.087,0.28l0.049,0.412L18.487,13.592z"/>
		<path fill-rule="evenodd" clip-rule="evenodd" fill="#414042" d="M18.054,11.609c0,0-0.131-0.263-0.439-0.757
			c-0.322-0.496-0.532-0.712-0.532-0.712l0.34-0.264l0.241,0.312l1.665-1.303l-0.321-0.496l0.485-0.328c0,0,0.132,0.031,0.742,0.988
			c0.631,0.957,0.615,1.09,0.615,1.09l-0.469,0.33l-0.34-0.494l-1.812,1.072l0.195,0.347L18.054,11.609z"/>
		<path fill-rule="evenodd" clip-rule="evenodd" fill="#414042" d="M16.902,9.961c0,0-0.225-0.201-0.693-0.529
			c-0.471-0.332-0.744-0.447-0.744-0.447l0.21-0.378l0.339,0.196l1.052-1.866l-0.485-0.33l0.322-0.495c0,0,0.131,0,1.068,0.629
			c0.937,0.643,0.97,0.775,0.97,0.775l-0.322,0.478l-0.484-0.329l-1.278,1.701l0.306,0.264L16.902,9.961z"/>
		<path fill-rule="evenodd" clip-rule="evenodd" fill="#414042" d="M15.224,8.887c0,0-0.279-0.1-0.828-0.232
			c-0.564-0.113-0.871-0.113-0.871-0.113l0.048-0.432l0.403,0.049l0.277-2.129l-0.584-0.117l0.111-0.576
			c0,0,0.115-0.066,1.213,0.164c1.118,0.215,1.197,0.314,1.197,0.314l-0.113,0.578l-0.581-0.115l-0.534,2.08l0.373,0.115
			L15.224,8.887z"/>
		<path fill-rule="evenodd" clip-rule="evenodd" fill="#414042" d="M13.281,8.556c0,0-0.307,0.017-0.858,0.117
			c-0.565,0.114-0.842,0.229-0.842,0.229l-0.13-0.413l0.391-0.116l-0.552-2.08L10.726,6.41l-0.113-0.58c0,0,0.08-0.096,1.181-0.33
			c1.101-0.212,1.23-0.147,1.23-0.147l0.111,0.578l-0.58,0.114l0.273,2.115l0.404-0.033L13.281,8.556z"/>
		<path fill-rule="evenodd" clip-rule="evenodd" fill="#414042" d="M11.34,9.002c0,0-0.259,0.131-0.745,0.444
			c-0.469,0.333-0.695,0.548-0.695,0.548l-0.258-0.35l0.305-0.247l-1.276-1.7L8.186,8.026L7.86,7.533c0,0,0.049-0.118,0.972-0.762
			c0.938-0.644,1.083-0.629,1.083-0.629l0.31,0.496l-0.485,0.33L10.79,8.82l0.355-0.199L11.34,9.002z"/>
		<path fill-rule="evenodd" clip-rule="evenodd" fill="#414042" d="M10.773,12.041c0,0-0.097,0.149-0.226,0.479
			c-0.147,0.331-0.18,0.512-0.18,0.512l-0.242-0.083l0.064-0.23l-1.213-0.412l-0.146,0.331L8.51,12.502c0,0-0.017-0.082,0.243-0.727
			c0.257-0.659,0.338-0.693,0.338-0.693l0.324,0.133l-0.145,0.348l1.162,0.576l0.115-0.229L10.773,12.041z"/>
		<path fill-rule="evenodd" clip-rule="evenodd" fill="#414042" d="M10.335,13.196c0,0-0.016,0.183-0.016,0.528
			c-0.017,0.364,0.033,0.545,0.033,0.545l-0.26,0.035l-0.031-0.267l-1.278,0.099v0.365H8.427c0,0-0.047-0.066-0.047-0.761
			c0-0.71,0.047-0.776,0.047-0.776h0.356v0.363l1.278,0.084l0.016-0.25L10.335,13.196z"/>
		<path fill-rule="evenodd" clip-rule="evenodd" fill="#414042" d="M10.384,14.42c0,0,0.033,0.182,0.18,0.51
			c0.129,0.33,0.227,0.498,0.227,0.498l-0.227,0.113l-0.114-0.213l-1.164,0.576l0.146,0.33l-0.324,0.15c0,0-0.08-0.05-0.34-0.694
			c-0.258-0.646-0.243-0.726-0.243-0.726l0.326-0.15l0.143,0.346l1.215-0.429l-0.082-0.229L10.384,14.42z"/>
		<path fill-rule="evenodd" clip-rule="evenodd" fill="#414042" d="M10.869,15.541c0,0,0.114,0.149,0.356,0.395
			c0.241,0.268,0.406,0.367,0.406,0.367l-0.181,0.196l-0.175-0.147l-0.859,0.975l0.26,0.247l-0.244,0.265
			c0,0-0.08-0.017-0.582-0.512c-0.482-0.497-0.482-0.579-0.482-0.579l0.24-0.248l0.258,0.248l0.971-0.843l-0.16-0.196L10.869,15.541
			z"/>
		<path fill-rule="evenodd" clip-rule="evenodd" fill="#414042" d="M11.744,16.385c0,0,0.161,0.082,0.485,0.213
			c0.322,0.152,0.501,0.183,0.501,0.183l-0.083,0.248l-0.239-0.065l-0.405,1.238l0.339,0.148l-0.145,0.329
			c0,0-0.082,0.017-0.712-0.247c-0.629-0.265-0.678-0.347-0.678-0.347l0.144-0.33l0.325,0.147l0.565-1.187l-0.21-0.118
			L11.744,16.385z"/>
		<path fill-rule="evenodd" clip-rule="evenodd" fill="#414042" d="M12.859,16.812c0,0,0.195,0.033,0.534,0.033
			c0.355,0,0.533-0.033,0.533-0.033l0.018,0.266L13.7,17.094l0.098,1.322l0.357-0.016v0.363c0,0-0.066,0.064-0.762,0.064
			c-0.679,0-0.746-0.064-0.746-0.064v-0.348h0.358l0.08-1.322l-0.243-0.016L12.859,16.812z"/>
		<path fill-rule="evenodd" clip-rule="evenodd" fill="#414042" d="M14.072,16.78c0,0,0.178-0.033,0.503-0.183
			c0.321-0.131,0.482-0.213,0.482-0.213l0.115,0.213l-0.211,0.118l0.566,1.187l0.324-0.147l0.146,0.33c0,0-0.048,0.082-0.68,0.347
			c-0.632,0.264-0.71,0.247-0.71,0.247l-0.146-0.329l0.337-0.148l-0.419-1.238l-0.225,0.082L14.072,16.78z"/>
		<path fill-rule="evenodd" clip-rule="evenodd" fill="#414042" d="M15.173,16.301c0,0,0.146-0.115,0.406-0.361
			c0.242-0.249,0.354-0.398,0.354-0.398l0.194,0.166l-0.163,0.197l0.971,0.846l0.261-0.268l0.242,0.268c0,0,0,0.079-0.487,0.576
			c-0.484,0.495-0.566,0.51-0.566,0.51l-0.257-0.263l0.257-0.265l-0.856-0.957l-0.179,0.131L15.173,16.301z"/>
		<path fill-rule="evenodd" clip-rule="evenodd" fill="#414042" d="M16.014,15.41c0,0,0.098-0.166,0.225-0.48
			c0.146-0.328,0.181-0.527,0.181-0.527l0.241,0.082l-0.065,0.247l1.215,0.415l0.146-0.332l0.322,0.133c0,0,0.016,0.084-0.242,0.729
			c-0.26,0.659-0.34,0.691-0.34,0.691l-0.325-0.129l0.146-0.35l-1.163-0.577l-0.115,0.214L16.014,15.41z"/>
		<path fill-rule="evenodd" clip-rule="evenodd" fill="#414042" d="M16.448,14.255c0,0,0.034-0.183,0.034-0.53
			c0-0.362-0.034-0.544-0.034-0.544l0.261-0.036l0.018,0.25l1.293-0.084v-0.362h0.356c0,0,0.049,0.067,0.049,0.76
			c0,0.712-0.049,0.776-0.049,0.776H18.02v-0.363l-1.293-0.098l-0.018,0.246L16.448,14.255z"/>
		<path fill-rule="evenodd" clip-rule="evenodd" fill="#414042" d="M16.434,13.016c0,0-0.049-0.181-0.176-0.514
			c-0.146-0.328-0.244-0.479-0.244-0.479l0.244-0.133l0.112,0.232l1.146-0.594l-0.146-0.33l0.325-0.15c0,0,0.08,0.051,0.34,0.693
			c0.275,0.662,0.242,0.727,0.242,0.727l-0.322,0.15l-0.146-0.347l-1.215,0.427l0.083,0.232L16.434,13.016z"/>
		<path fill-rule="evenodd" clip-rule="evenodd" fill="#414042" d="M15.934,11.874c0,0-0.112-0.13-0.354-0.394
			c-0.244-0.25-0.39-0.364-0.39-0.364l0.16-0.198l0.179,0.164l0.856-0.989l-0.257-0.265l0.242-0.25c0,0,0.078,0,0.581,0.498
			c0.487,0.496,0.487,0.576,0.487,0.576l-0.244,0.266l-0.259-0.266l-0.971,0.877l0.163,0.182L15.934,11.874z"/>
		<path fill-rule="evenodd" clip-rule="evenodd" fill="#414042" d="M15.042,11.035c0,0-0.146-0.101-0.467-0.233
			c-0.325-0.149-0.503-0.181-0.503-0.181l0.083-0.25l0.225,0.066l0.404-1.236l-0.322-0.148l0.127-0.331c0,0,0.084-0.017,0.713,0.245
			c0.648,0.266,0.679,0.35,0.679,0.35l-0.128,0.328l-0.342-0.148l-0.566,1.191l0.229,0.114L15.042,11.035z"/>
		<path fill-rule="evenodd" clip-rule="evenodd" fill="#414042" d="M13.911,10.588c0,0-0.178-0.016-0.518-0.033
			c-0.355,0-0.534,0.033-0.534,0.033l-0.031-0.265l0.241-0.017l-0.08-1.305h-0.354V8.639c0,0,0.063-0.049,0.742-0.049
			c0.696-0.018,0.759,0.049,0.759,0.049v0.346L13.78,9.002l-0.094,1.305l0.258,0.017L13.911,10.588z"/>
		<path fill-rule="evenodd" clip-rule="evenodd" fill="#414042" d="M12.698,10.621c0,0-0.178,0.049-0.501,0.18
			c-0.323,0.15-0.47,0.248-0.47,0.248l-0.13-0.231l0.228-0.116l-0.584-1.188l-0.322,0.148L10.79,9.333c0,0,0.032-0.083,0.661-0.349
			c0.648-0.279,0.713-0.246,0.713-0.246l0.146,0.329l-0.342,0.147l0.42,1.24l0.229-0.084L12.698,10.621z"/>
		<path fill-rule="evenodd" clip-rule="evenodd" fill="#414042" d="M11.598,11.131c0,0-0.146,0.116-0.39,0.365
			c-0.257,0.248-0.354,0.414-0.354,0.414l-0.21-0.184l0.164-0.184l-0.975-0.855l-0.24,0.247l-0.259-0.247
			c0,0,0.015-0.083,0.499-0.578c0.486-0.514,0.568-0.514,0.568-0.514l0.242,0.248l-0.242,0.266l0.84,0.99l0.195-0.165L11.598,11.131
			z"/>
		<rect x="0.228" y="30.801" fill-rule="evenodd" clip-rule="evenodd" fill="#414042" width="102.146" height="1.95"/>
		<path fill-rule="evenodd" clip-rule="evenodd" fill="#414042" d="M90.565,10.141h-0.52c-0.129,0.383-0.192,0.432-0.484,0.432
			c-0.728,0-1.666-0.597-3.655-0.597c-3.042,0-5.095,1.634-5.095,4.03c0,1.223,0.452,2.312,1.582,3.254
			c2.104,1.752,7.135,3.006,7.135,5.697c0,1.686-1.505,2.775-3.77,2.775c-1.634,0-4.465-0.94-4.495-3.834h-0.566v4.212h0.566
			c0.163-0.395,0.388-0.593,0.714-0.593c0.63,0,2.294,0.826,4.285,0.826c2.927,0,5.32-1.998,5.32-4.445
			c0-1.039-0.324-2.014-1.635-3.104c-2.684-2.244-7.439-2.989-7.439-5.879c0-1.436,1.39-2.344,3.349-2.344
			c1.908,0,3.866,0.908,4.157,3.22h0.551V10.141z"/>
		<path fill-rule="evenodd" clip-rule="evenodd" fill="#414042" d="M37.917,13.362c0-1.898,0.532-2.493,2.02-2.493V10.39h-6.389
			v0.479c1.52,0,2.022,0.512,2.022,2.493v9.776c0,2.014-0.567,2.51-2.022,2.51v0.462h6.389v-0.462c-1.487,0-2.02-0.577-2.02-2.51
			V13.362z"/>
		<path fill-rule="evenodd" clip-rule="evenodd" fill="#414042" d="M58.747,14.617l-0.014-3.666h-0.601
			c-0.063,0.066-0.192,0.148-0.469,0.148c-0.808,0-2.216-1.007-5.482-1.007c-5.403,0-9.302,3.534-9.302,8.421
			c0,4.693,3.785,8.074,9.042,8.074c3.058,0,4.967-0.957,6.616-0.725c0.031,0,0.888-3.6,0.904-3.649h-0.485
			c-1.763,3.056-4.286,3.75-6.338,3.75c-3.933,0-7.295-3.37-7.295-7.944c0-4.246,2.7-7.301,7.018-7.301
			c2.831,0,5.063,1.538,5.923,3.898H58.747z"/>
		<path fill-rule="evenodd" clip-rule="evenodd" fill="#414042" d="M74.712,16.284h-0.533c-0.242,1.341-0.71,1.521-1.925,1.521
			h-4.948V11.1h5.108c1.958,0,2.572,0.131,2.979,1.865h0.34v-2.642H62.938v0.478c1.519,0,2.005,0.546,2.005,2.494v9.812
			c0,2.08-0.614,2.476-2.005,2.476v0.463h12.794l0.806-2.938h-0.532c-1.05,2.062-1.698,2.162-4.303,2.162h-3.104
			c-0.986,0-1.293-0.298-1.293-1.059V18.58h4.397c1.829,0,2.104,0.166,2.476,1.503h0.533V16.284z"/>
		<path fill-rule="evenodd" clip-rule="evenodd" fill="#414042" d="M100.09,13.295c0-1.899,0.535-2.493,2.022-2.493v-0.479h-6.39
			v0.479c1.523,0,2.021,0.513,2.021,2.493v9.778c0,2.015-0.564,2.51-2.021,2.51v0.463h6.39v-0.463c-1.487,0-2.022-0.577-2.022-2.51
			V13.295z"/>
		<path fill-rule="evenodd" clip-rule="evenodd" fill="#414042" d="M33.401,1.404h0.632v2.479c0,0.266,0.015,0.461,0.048,0.576
			c0.035,0.116,0.082,0.217,0.162,0.299c0.131,0.148,0.293,0.263,0.469,0.33c0.176,0.083,0.388,0.115,0.613,0.115
			c0.391,0,0.698-0.099,0.94-0.28c0.241-0.2,0.354-0.446,0.354-0.774V1.404h0.632v2.774c0,0.479-0.179,0.86-0.535,1.157
			c-0.356,0.299-0.809,0.445-1.392,0.445c-0.34,0-0.646-0.051-0.92-0.167c-0.275-0.114-0.503-0.278-0.68-0.51
			c-0.129-0.134-0.21-0.28-0.258-0.446c-0.049-0.165-0.066-0.412-0.066-0.762V1.404z"/>
		<polygon fill-rule="evenodd" clip-rule="evenodd" fill="#414042" points="40.874,5.697 40.874,1.404 41.44,1.404 44.383,4.742 
			44.383,1.404 45.017,1.404 45.017,5.697 44.451,5.697 41.522,2.363 41.522,5.697 		"/>
		<rect x="48.881" y="1.404" fill-rule="evenodd" clip-rule="evenodd" fill="#414042" width="0.63" height="4.295"/>
		<polygon fill-rule="evenodd" clip-rule="evenodd" fill="#414042" points="54.655,5.73 52.699,1.404 53.36,1.404 54.751,4.477 
			56.175,1.404 56.84,1.404 54.835,5.73 		"/>
		<polygon fill-rule="evenodd" clip-rule="evenodd" fill="#414042" points="60.107,5.697 60.107,1.404 62.792,1.404 62.792,1.949 
			60.738,1.949 60.738,3.254 62.743,3.254 62.743,3.816 60.738,3.816 60.738,5.154 62.855,5.154 62.855,5.697 		"/>
		<path fill-rule="evenodd" clip-rule="evenodd" fill="#414042" d="M66.577,5.697V1.404h1.31c0.453,0,0.81,0.1,1.051,0.313
			c0.242,0.199,0.374,0.48,0.374,0.859c0,0.28-0.064,0.513-0.21,0.692c-0.131,0.167-0.343,0.298-0.634,0.381
			c0.067,0.034,0.146,0.1,0.214,0.166c0.063,0.049,0.143,0.165,0.256,0.312l1.086,1.568h-0.776l-0.761-1.122
			c-0.245-0.329-0.422-0.562-0.566-0.644c-0.146-0.1-0.308-0.15-0.502-0.15h-0.194v1.916H66.577z M67.224,3.27h0.533
			c0.29,0,0.52-0.064,0.664-0.165c0.146-0.114,0.227-0.28,0.227-0.511s-0.063-0.396-0.21-0.512c-0.147-0.099-0.373-0.15-0.681-0.15
			h-0.533V3.27z"/>
		<path fill-rule="evenodd" clip-rule="evenodd" fill="#414042" d="M73.126,5.367V4.561c0.211,0.23,0.406,0.378,0.584,0.478
			c0.195,0.099,0.389,0.149,0.598,0.149c0.211,0,0.391-0.051,0.518-0.149c0.131-0.1,0.195-0.231,0.195-0.396
			c0-0.148-0.049-0.265-0.132-0.38c-0.079-0.1-0.288-0.248-0.612-0.445c-0.501-0.313-0.825-0.562-0.954-0.727
			c-0.132-0.184-0.196-0.38-0.196-0.629c0-0.329,0.132-0.594,0.372-0.809c0.243-0.217,0.565-0.33,0.956-0.33
			c0.162,0,0.34,0.033,0.502,0.082c0.178,0.031,0.34,0.116,0.518,0.215v0.694c-0.213-0.147-0.39-0.265-0.551-0.33
			c-0.162-0.066-0.34-0.099-0.502-0.099c-0.193,0-0.357,0.047-0.484,0.146c-0.129,0.082-0.195,0.216-0.195,0.363
			c0,0.215,0.262,0.48,0.791,0.793l0.1,0.051c0.42,0.265,0.71,0.495,0.842,0.677c0.128,0.198,0.193,0.445,0.193,0.727
			c0,0.329-0.13,0.61-0.371,0.825c-0.244,0.215-0.568,0.312-0.955,0.312c-0.242,0-0.453-0.031-0.648-0.098
			C73.498,5.614,73.305,5.517,73.126,5.367"/>
		<rect x="79.194" y="1.404" fill-rule="evenodd" clip-rule="evenodd" fill="#414042" width="0.63" height="4.295"/>
		<path fill-rule="evenodd" clip-rule="evenodd" fill="#414042" d="M85.323,1.983H84.32v3.136h1.003c0.567,0,0.988-0.13,1.31-0.411
			c0.323-0.281,0.472-0.661,0.472-1.157c0-0.477-0.148-0.857-0.472-1.139C86.312,2.132,85.891,1.983,85.323,1.983 M85.323,1.404
			c0.338,0,0.615,0.033,0.859,0.082c0.24,0.066,0.45,0.166,0.66,0.281c0.293,0.198,0.534,0.463,0.697,0.761
			c0.161,0.313,0.241,0.659,0.241,1.022c0,0.379-0.08,0.711-0.241,1.024c-0.163,0.313-0.404,0.562-0.697,0.761
			c-0.193,0.131-0.42,0.215-0.66,0.278c-0.244,0.067-0.521,0.085-0.859,0.085H83.69V1.404H85.323z"/>
		<path fill-rule="evenodd" clip-rule="evenodd" fill="#414042" d="M91.939,3.883h1.393l-0.697-1.555L91.939,3.883z M90.468,5.697
			l1.94-4.293h0.47l1.957,4.293h-0.664l-0.565-1.254h-1.908l-0.585,1.254H90.468z"/>
		<path fill-rule="evenodd" clip-rule="evenodd" fill="#414042" d="M99.802,1.983h-1.02v3.136h1.02c0.548,0,0.985-0.13,1.293-0.411
			c0.322-0.281,0.484-0.661,0.484-1.157c0-0.477-0.162-0.857-0.484-1.139C100.787,2.132,100.35,1.983,99.802,1.983 M99.802,1.404
			c0.322,0,0.609,0.033,0.84,0.082c0.243,0.066,0.469,0.166,0.661,0.281c0.31,0.198,0.534,0.463,0.696,0.761
			c0.18,0.313,0.26,0.659,0.26,1.022c0,0.379-0.08,0.711-0.26,1.024c-0.162,0.313-0.387,0.562-0.696,0.761
			c-0.192,0.131-0.418,0.215-0.646,0.278c-0.245,0.067-0.532,0.085-0.854,0.085h-1.652V1.404H99.802z"/>
	</g>
	
		<line fill="none" stroke="#5B243E" stroke-width="0.25" stroke-miterlimit="10" x1="129.134" y1="4.005" x2="129.134" y2="28.748"/>
	
		<line fill="none" stroke="#5B243E" stroke-width="0.25" stroke-miterlimit="10" x1="269.157" y1="11.867" x2="275.822" y2="11.867"/>
	
		<line fill="none" stroke="#5B243E" stroke-width="0.25" stroke-miterlimit="10" x1="269.157" y1="23.541" x2="275.822" y2="23.541"/>
</g>
</svg>
